<svg xmlns="http://www.w3.org/2000/svg" viewBox="0 0 316.045 294">
  <defs>
    <style>
      .cls-1 {
        fill: #fff;
      }
    </style>
  </defs>
  <g id="Content" transform="translate(0 0)">
    <path id="Path_242" data-name="Path 242" d="M315.332,125.231a12.777,12.777,0,0,0-7.521-7.767c-.039,0-3.437-1.411-9.664-11.236a114.4,114.4,0,0,0,3.884-11.69,12.8,12.8,0,0,0-3.961-12.945,30.531,30.531,0,0,0-8.039-5.1c11.929-13.1,26.033-33.716,14.24-51.781-3.605-5.573-10.8-12.3-24.6-12.686a34.49,34.49,0,0,0-25.618,9.625,46.865,46.865,0,0,0-3.7,3.884c-.686-.531-1.4-1.061-2.2-1.579l-.162-.1a35.1,35.1,0,0,0-14.4-5.482c-.227-.039-.46-.071-.686-.091a13.936,13.936,0,0,0-6.473-.725A12.984,12.984,0,0,0,223.3,13.1a12.8,12.8,0,0,0-9.547-3.307c-.712.052-2.887.369-5.715.816a14.486,14.486,0,0,0-3.282-4.531,19.418,19.418,0,0,0-6.35-3.832c-.149-.065-.3-.117-.453-.168a40.479,40.479,0,0,0-10.5-2.045,12.764,12.764,0,0,0-5.34.751,15.929,15.929,0,0,0-2.9.278A12.783,12.783,0,0,0,169.1,10.608c-.5,2.032-1.152,4.964-1.89,8.486-3.236.563-6.854,1.139-10.214,1.676-4.065.647-7.9,1.262-10.848,1.806a30.591,30.591,0,0,0-7.961,2.246,12.569,12.569,0,0,0-1.689.4,12.829,12.829,0,0,0-3.411-.33,14.641,14.641,0,0,0-3.236-.1,50.483,50.483,0,0,0-5.508.693,12.8,12.8,0,0,0-9.664,7.7,37.538,37.538,0,0,0-1.4,3.884,21.5,21.5,0,0,0-4.142-.46h0a13.23,13.23,0,0,0-.388-8.537c-2.589-6.473-9.12-8.764-13.592-10.233a13.042,13.042,0,0,0-7.372-.388,21.612,21.612,0,0,0-6.123.706c-.4.032-.809.084-1.21.149a12.757,12.757,0,0,0-6.731,3.333c-4.861-2.272-10.434-1.845-13.592-1.612a12.783,12.783,0,0,0-5.469,1.709l-6.24,1.016a28.382,28.382,0,0,0-5.042,1.2,13.444,13.444,0,0,0-5.625,22.007L34.59,61.236Q34.162,63.12,32.8,69.32c-5.081.731-9.858,1.463-14.11,2.155a12.835,12.835,0,0,0-5.456,2.272,16.4,16.4,0,0,0-5.955,8.091A12.479,12.479,0,0,0,5.7,84.79c-2.485,6.744-2.641,12.816-.466,18.052a12.8,12.8,0,0,0,18.123,6.207,2.269,2.269,0,0,1,.239-.129c-.11.466-.227.932-.343,1.4-7.592,30.738-11.651,40.221-13.12,42.959a12.79,12.79,0,0,0,3.942,22.557,22.447,22.447,0,0,0,4.045.809c-.608.751-1.21,1.5-1.786,2.233-2.5,1.385-6.473,3.657-8.117,8.615a29.735,29.735,0,0,0-.977,3.612,12.861,12.861,0,0,0-1.2,3.068,31.916,31.916,0,0,0-1.074,8.654,19.962,19.962,0,0,0-2.939,3.515A12.79,12.79,0,0,0,2.11,220.3l.479.725a12.8,12.8,0,0,0,18.356,3.191c-4.958,13.592-6.8,23.483-5.761,30.822a3.063,3.063,0,0,0,.1.576,31.328,31.328,0,0,0,1.942,6.958,12.945,12.945,0,0,0,1,2.906c5.955,12.3,14.783,14.57,20.408,14.57h.647a13.683,13.683,0,0,0,1.385,6.621A13.243,13.243,0,0,0,52.557,294c3.605,0,7.282-1.437,12.2-3.553,3.7-1.605,7.172-3.016,10.233-4.259h0c2.337-.887,7.32-2.738,15.249-5.508,7.469-2.518,14.971-4.79,22.292-6.744h.084l1.4-.388c10.447-2.861,25.476-6.977,40.408-10.505a12.8,12.8,0,0,0,16.719,7.651c7.372-2.887,24.292-8.486,63.03-18.771,38.188-10.123,47.535-11,49.638-10.952a12.783,12.783,0,0,0,14.389-8.99,51.66,51.66,0,0,1,1.825-5.023c1.34-3.282,4.9-11.994-2.356-18.641a12.822,12.822,0,0,0-5.858-3.062,38.737,38.737,0,0,0-6.537-.718,84.517,84.517,0,0,0,10.356-21.677,13.16,13.16,0,0,0,.809-4.071c.155-.227.3-.453.447-.686a12.946,12.946,0,0,0,2.5-3.333,26.291,26.291,0,0,0,3.107-9.5,15.677,15.677,0,0,0-4.466-12.945,19.917,19.917,0,0,0,1.01-5.411c4.259-.6,10.421-2.958,15.178-10.88a12.8,12.8,0,0,0,1.113-10.8ZM50.124,288.677a2.088,2.088,0,0,1-.466-.1Z" transform="translate(0 0.003)"/>
    <path id="Path_243" data-name="Path 243" class="cls-1" d="M47.165,105.192l-.408,1.832h.078q-2.272,9.573-4.977,20.557-12.078,48.881-17.948,50.188c3.282.977,7.767.11,13.631-2.783.362-.3.99.071,1.295.039.524-.311,2.233-.99,2.68-1.295s1.741-.945,2.188-1.243a7.644,7.644,0,0,0,2.893-3.644c.731-1.884,2.078-7.767,4.207-17.91s3.288-15.573,3.463-16.544l-1.78,10.589c-1.715,10.253-2.654,15.948-2.79,16.991.129.246.945-.175.816-.421.809-5.942,3.528-24.6,10.57-55.211,0-.065.531-2.3.854-3.748,5.631-1,12.253-2.071,19.8-3.055-.084.272-1.152.647-3.133,1.113a11.208,11.208,0,0,0-2.958.913,5.722,5.722,0,0,0-.1,1.12c-3.333,14.77-8.117,33.263-11.89,48.221.1,1.612,1.1,2.4,3.016,2.473.278-.045.46,1.644.731,1.6.731,0,6.395-4.311,15.534-9.2v-1.722c-.078-7.443,2.537-18.835,6.291-38.331,5.644-26.615,10.233-45.548,13.592-57.716v-.175a3.457,3.457,0,0,0,.162-.544c.414-.751-1.56-1.806-5.922-3.236-.246-.22-1.728.712-2.142.518-2.466-.647-4.77.434-5.269.518a2.854,2.854,0,0,0-.984,0l-.822,3.832c-2.142,7.12-5.437,21.191-9.8,41.949-6.473,1.062-11.353,1.767-14.486,2.194q8.524-35.6,11.605-44.227c.647-1.942-2.958-2.265-7.9-1.89a1.618,1.618,0,0,0-.33.57v.343L56.647,49.534a16.763,16.763,0,0,0-2.712.615c-.906.324-1.074.777-.5,1.372a9.641,9.641,0,0,1,4.019,6.388l-4.2,20.22c-.414,1.786-1.644,7.4-3.7,16.777C40.084,96.2,32.517,97.34,26.9,98.253a4.342,4.342,0,0,0-1.644,3.8l-.647.453-.744.893c-1.295,3.566-1.56,6.537-.647,8.712C26.834,110.027,34.821,107.807,47.165,105.192Z" transform="translate(-7.999 -15.525)"/>
    <path id="Path_244" data-name="Path 244" class="cls-1" d="M199.88,92.536a.485.485,0,0,0-.472-.116q-.608,1.735-2.142,6.3c-1.107,3.062-1.942,5.676-2.654,7.877l-.861,3.023.99-2.641c.686-1.7,1.5-4.117,2.589-7.178S199.187,94.335,199.88,92.536Z" transform="translate(-68.344 -32.591)"/>
    <path id="Path_245" data-name="Path 245" class="cls-1" d="M126.576,141.586q2.24,4.065,8.621,4.168c.408-.071.88.045,1.295,0,3.884-2.537,8.194-8.913,12.861-19.01-2.3,8.5-3.534,13.366-3.618,14.57a3.074,3.074,0,0,0,2.084,2.317,7.728,7.728,0,0,0,3.761.149c.246-.045.712-.913.951-.958a10.66,10.66,0,0,1,3.042.175,10.356,10.356,0,0,0,2.8.22l1.618-7.994c1.113-5.437,2.168-10.071,3.178-14q1.379-5.728,4.013-15.534a440.694,440.694,0,0,1,16.829-49.133c.265-.343-.809-1.049-1.074-.706-.388.958-4.162,11.45-5.566,15.347s-2.8,7.592-3.981,11.062a37.393,37.393,0,0,1-2.065,5.3l1.625-4.731c1.126-3.359,2.33-6.731,3.547-10.2S181.2,59.2,181.314,58.789c.647-1.5-3.618-1.062-4.867-1.644-.4.071.311-.939-.071-1.172-.246.039-1.392.337-1.78.1a1.294,1.294,0,0,0-1.029-.22,34.8,34.8,0,0,0-4.3.537,18.936,18.936,0,0,0-1.055,2.841l-5.178,16.971c-2.964,11-7.275,23.994-12.764,38.881-5.5,14.984-9.612,23.01-12.188,24.143-2.783-.421-.984-10.919,5.5-31.716,6.388-20.68,11.256-33.58,14.589-38.6l-1.217.207c-1.728,2.77-4.531,9.787-8.686,21.269s-7.715,22.292-10.615,32.479c1.016-5.217,2.809-11.165,2.816-11.262,6.621-21.612,11.249-35.658,14.039-42.072.777-1.819-1.7-2.084-5.5-1.735-.246.039-1.133,1.184-1.379,1.223-2.032.35-4.408-.136-5.327.311A327.611,327.611,0,0,0,131,108.071C127.313,123.553,125.87,134.68,126.576,141.586Z" transform="translate(-44.587 -19.666)"/>
    <path id="Path_246" data-name="Path 246" class="cls-1" d="M189.956,144.9c0,.091.252.045.647-.116l.647-.285-.337-.117c-1.184-.142-2.207-1.34-3.055-3.605s-1.016-5.333-.421-9.133a24.913,24.913,0,0,1,4.492-10.835,22.654,22.654,0,0,0-2.46,15.3c1.1,5.32,3.728,8.058,7.884,8.3,3.638.149,7.877-1.172,12.537-4.032A34.02,34.02,0,0,0,221.4,128.805c2.88-4.8,3.644-9.4,2.207-13.715-1.191-4.272-3.644-10.045-7.456-17.224s-5.605-12.136-5.269-15.016a4.433,4.433,0,0,1,4.66-4.149,4.831,4.831,0,0,1,5.256,3.754,69.951,69.951,0,0,1-3.819,11.23,29.092,29.092,0,0,0,7.12,1.366c-.084.447-.168.718-.168.8a8.156,8.156,0,0,0,2.117,0c.343-.058,1.016-2.757,1.7-5.107.421-1.45.764-2.712,1.016-2.757a8.955,8.955,0,0,1-.6,2.589c-.511,1.715-1.016,3.618-1.437,5.32l-.647,2.7a.874.874,0,0,1,.511-.259h.168l1.521-4.822c.932-3.172,2.039-7.062,3.307-11.489a96.421,96.421,0,0,0,2.46-10.486c.589-1.825-6.524-1.21-10.084-1.812-.421.078-.932,2.311-1.184,2.356l.848,2.181-.647-.835a3.411,3.411,0,0,1-.828-.939c-3.728-2.375-8.557-1.728-14.576,2.142-8.893,5.987-10.421,14.162-7.2,21.787a99.235,99.235,0,0,0,5.489,11.353,60.2,60.2,0,0,1,5.081,11.437c1.295,4,1.353,7.34.252,10.11-2.964,7.3-7.767,10.356-11.774,9.4-3.236-.828-4.071-3.884-2.544-9.2a23.528,23.528,0,0,1,8.337-12.6c.764-.557.764-2.019-.168-4.188a22.006,22.006,0,0,0-3.644-5.741c-1.528-1.547-2.544-2.065-2.964-1.56a67.683,67.683,0,0,0-11.282,19.489C184.279,132.689,184.868,140.352,189.956,144.9Z" transform="translate(-65.41 -24.595)"/>
    <path id="Path_247" data-name="Path 247" class="cls-1" d="M220.5,48.367v.913c6.667-.77,26.538-3.359,30.486-3.709q-14.369,70.694-13.223,72.144c1.443,1.295,4.071,1.877,7.767,1.7.589-.1,1.016-1.825,1.295-1.871a.906.906,0,0,0,.848.227q6.732-37.612,17.2-74.933c1.107-.188,2.46-.421,3.884-.576,2.887-.4,16.628-2.4,20.609-3.074l-3.981,1.295h-.168l-.175.214-.337.058h-.848l-.168.214h-.168l-.259.045-.168.032h.932c5.424-.557,8.136-1.566,8.136-3.126s-.68-3.922-.68-5.825l-.68-.252a2.13,2.13,0,0,1-.337-1.5c0-.647-13.321,1.1-22.466,2.382,2.964-.867,15.942-3.016,21.36-3.663.932-.155.764-1.78.511-2.013-.932.071-13.832,2.1-21.36,3.67,1.1-3.4,2.117-6.6,3.139-9.528.337-.88-.6-1.735-2.712-2.589a28.622,28.622,0,0,0-7.2-1.34l-.337.608a2.045,2.045,0,0,1-1.295.032l-.337.058c-.252.045-.68,1.126-1.353,3.625-.343,1.249-.68,2.5-.939,3.553-.5,1.942-1.864,7.288-2.2,8.816l-.848.142L258.284,19.2c.343-1.256-1.353-.874-1.521-.841-.68,2.77-1.864,8.2-3.476,16.369-10,2.343-33.787,5.275-34.382,6.388s-.589,3.4-.168,6.816C218.717,48.393,220.5,48.089,220.5,48.367Z" transform="translate(-77.052 -6.087)"/>
    <path id="Path_248" data-name="Path 248" class="cls-1" d="M310.518,89.3q-3.43,13.767-1.295,20.065a14.24,14.24,0,0,0,6.861,7.9c3.392,1.877,6.1,2.926,8.22,3.042q6.1-1.049,13.728-10.848A66.881,66.881,0,0,0,349.3,87.408V87.6a71.772,71.772,0,0,1-7.935,18.071q-5.217,8.414-10.932,12.641c4.071-2.68,7.968-6.842,11.612-12.563a71.788,71.788,0,0,0,8.473-18.932c.337-.531-.848-.99-2.207-1.23-.757-.155-2.964-.531-4.149-.8a3.638,3.638,0,0,0-1.443-.511,3.12,3.12,0,0,0-1.864-.252c-.252,1.295-.589,2.841-1.016,4.615l-.252-.142,1.295-4.473v-.356c-.252-.239-.589,0-.841-.233a56.434,56.434,0,0,1-6.952,19.418c-3.728,6.589-7.372,10.518-10.932,11.6-1.605.744-2.88.11-3.638-1.838-2.207-4.913-.68-14.058,4.66-27.541,3.981-1.715,6.945-2.887,8.893-3.592a48.176,48.176,0,0,1,9.062-2.019,27.34,27.34,0,0,1,11.521.583,13.273,13.273,0,0,1-1.184-2.065,35.043,35.043,0,0,0-12.033.259,51.723,51.723,0,0,0-15.081,4.932,54.467,54.467,0,0,1,17.476-6.473c6.356-1.178,10.6-.958,12.8.751,1.864-3.819,2.117-6.317.68-7.489-.427-.4-2.117-.492-5-.188a28.382,28.382,0,0,0-6.44,1.191q9.146-11.062,9.146-15.735,0-3.126-4.829-6.265a22.4,22.4,0,0,0-9.573-3.663c-.084-.078-.252-.052-.5.091l-.175.214c-.421.078-2.369-1.392-2.8-1.036-4.66,2.783-9.321,8.68-14.065,17.618a119.177,119.177,0,0,0-10.55,27.12Zm32.026-36.557c.932-1.2,3.139-1.2,3.139-.531a45.056,45.056,0,0,1-4.071,13.262c-2.117,4.531-4.4,7.269-6.693,8.324-1.437.647-7.029,3.087-8.473,3.994C332.971,65.246,338.311,56.871,342.544,52.741Z" transform="translate(-108.787 -15.697)"/>
    <path id="Path_249" data-name="Path 249" class="cls-1" d="M411.112,119.543c-.272-.33-2.233,2.311-2.252,1.9a35.752,35.752,0,0,1,2.8-5.262,112.55,112.55,0,0,0,4.764-13.592,15.094,15.094,0,0,0-11.605-4.071q0,.155-.647,2.738a22.293,22.293,0,0,1-1.139,3.528c-2.311-3.372-4.531-8.285-6.7-14.544A8.072,8.072,0,0,0,397.9,88.7Q430.167,58.144,420.264,43c-2.88-4.447-7.651-6.667-14.24-6.854a21.715,21.715,0,0,0-16.434,6.1q-17.677,16.46-3.9,48.337c-.414.485-2.757-5.573-3.172-5.087-11.295,8.647-17.444,20.266-17.955,30.136-1.333,14.77,6.712,28.479,17.573,29.4,7.916,1.01,15.631-4.5,22.978-16.44a11.556,11.556,0,0,0,1.113,1.735c10.486,15.968,18.343,19.45,23.741,10.46Q421.384,137.5,411.112,119.543ZM392.426,57.218c2.026-5.113,4.725-8.628,8.091-10.751,3.372-2.007,6.168-1.359,8.473,1.877,2.337,3.793-.557,10.8-8.757,20.919a63.7,63.7,0,0,0,4.9-8.5q5.178-11.547-4.388-11.172h.343c3.663.686,5.314,2.667,4.848,5.825-.537,5.541-5.223,12.945-13.9,22.084l-.414-1.579A26.324,26.324,0,0,1,392.426,57.218Zm-7.566,76.661c-2.8,1.34-4.964,1.178-6.6-.5-2.589-2.466-3.165-6.842-1.631-13.23,1.521-6.809,4.453-10.919,8.8-12.453-.259,0-.964-.278-1.223-.3-2.971,1.295-5.424,4.531-7.275,9.677s-2.259,9.534-1.295,13.113c-1.21-3.884-1.068-8.414.524-13.592s4.117-8.576,7.683-10.162a20.065,20.065,0,0,0-2.861,0c.712-1.5,3.359-4.285,7.767-8.291a88.246,88.246,0,0,0,4.842,9.657c2.356,4.3,3.884,7.2,4.621,8.608C393.921,125.893,389.5,131.647,384.859,133.88Z" transform="translate(-128.545 -12.743)"/>
    <path id="Path_250" data-name="Path 250" class="cls-1" d="M74.247,312.7a225.078,225.078,0,0,0,22.479-27.586c6.738-9.709,10.913-17.761,12.647-23.949,1.463-5.566.045-9.709-4.272-12.473-4.408-2.673-10.168-4.058-17.269-4.058a131.237,131.237,0,0,0-22.292,2.278,98.2,98.2,0,0,0-19.981,5.78c4.945-4.388,15.12-12.052,30.719-23.12,15.5-11.049,24.706-16.33,27.515-15.916a74.3,74.3,0,0,0-5.825,16.829c-.563.867.731,1.722,1.295,2.79a1.56,1.56,0,0,1,.272.926l-.162.608a7.359,7.359,0,0,0,1.139,1.553,8.868,8.868,0,0,0,5.871,3.016q4.214-14.926,20.777-34.3c-.039-2.123-2.919-4.945-8.524-8.583-1.942-1.23-3.424-1.858-4.531-1.773-2.835,5.113-4.667,8.414-5.5,9.806-.291.239,1.838,2.7,1.994,3.45C104.6,203.046,99.542,200,95.555,198.91c.058-.589-6.757,3.521-7.955,4.1l2.071-1.295a59.117,59.117,0,0,1,9.314-5.295l-.647-.57c-7.715,3.1-19.185,11.359-34.428,24.6q-23,19.884-34.8,35.5a13.693,13.693,0,0,1-2.278,1.34c-1.489.829-2.272,1.34-2.356,1.644-.434,1.139-.874,3.728-1.126,4.531a1.258,1.258,0,0,1-.369.647l-.375.447c-1.042,4.24-.939,7.223.421,9.062.1,0,1.7-.764,4.693-2.123l2.99-1.456c2.175-1.223,4.265-2.337,6.35-3.359a19.31,19.31,0,0,1,2.893-1.34l-5.178,2.777c-3.359,2-6.906,4.317-10.751,6.79s-6.278,4.414-7.12,5.709l.466.7c1.7-2.117,5.016-4.79,10.045-8.026A109,109,0,0,1,43,265.034a140.748,140.748,0,0,1,16.531-5.411A114.716,114.716,0,0,1,80.7,256.076c7.275-.511,11.379.757,12.4,3.592,1.172,3.489-2.485,10.181-11.055,20.2a283.505,283.505,0,0,1-23.4,24.635q-9.709,9-17.625,13.042c-1.094.57-1.8.783-2.123.544-.453.945-.117,1.295.777.841a16.364,16.364,0,0,0,3.372-1.9,83.463,83.463,0,0,0,16.033-12.207A217.793,217.793,0,0,0,91.141,268.51c-4.155,8.324-12.777,19.029-25.89,31.916s-22.557,20.531-28.279,22.719a2.954,2.954,0,0,1-.382-2.55.246.246,0,0,1,.188-.227,3.482,3.482,0,0,0,.129-1.178c1.456-7.12,6.434-16.932,14.848-29.25s16.02-19.754,22.855-22.13c-2.809-4.867-9.269-5.942-19.385-3.418-5.4,3.786-10.757,12.6-16.272,26.538s-7.812,23.839-7,29.612c.647,3.476,1.295,5.21,2.019,5.385a.757.757,0,0,1,.052.647,3.884,3.884,0,0,0-.168.608c2.647,5.476,6.013,7.929,10.188,7.249C51.075,333.326,61.179,326.064,74.247,312.7Z" transform="translate(-5.961 -68.68)"/>
    <path id="Path_251" data-name="Path 251" class="cls-1" d="M169.878,297.8c1.625,1.456,4.589,2.084,8.8,1.9.647-.11,1.146-2.007,1.43-2.052a1.049,1.049,0,0,0,.958.246q7.6-41.425,19.418-82.577c1.243-.207,2.7-.485,4.324-.777,21.12-3.754,38.1-3.7,42.59-4.427l-4.492,1.443h-.194l-.188.233-.382.058h-.194l-.188.032-.194.032h-.382l-.194.233-.188.032-.291.045-.188.032h1.049c6.123-.6,9.178-1.7,9.178-3.417,0-1.618-.764-4.33-.764-6.473l-.764-.278a2.3,2.3,0,0,1-.382-1.657c0-.712-23.8.414-44.622,3.812,24.822-5.418,37.263-4.531,43.366-5.23,1.055-.168.861-1.942.576-2.22-1.055.071-15.126-.4-43.366,5.236,1.243-3.748,2.388-7.269,3.541-10.492.382-.971-.647-1.942-3.062-2.841a33.076,33.076,0,0,0-8.13-1.508l-.382.647a2.3,2.3,0,0,1-1.43.032l-.382.058c-.291.052-.77,1.236-1.534,3.994-.382,1.379-.764,2.757-1.049,3.916-.576,2.117-2.1,8.032-2.485,9.709l-.958.155,4.3-16.686c.382-1.379-1.534-.964-1.722-.932-.764,3.055-3.767,18.02-3.922,18.039-2.919.369-5.987.861-6.356,1.191a47.384,47.384,0,0,0-7.554,11.651c-.265.537,1.754-.369,1.754-.065v1.01c7.269-1.489,7.851-1.579,9.573-1.858Q168.59,296.188,169.878,297.8Z" transform="translate(-59.89 -66.028)"/>
    <path id="Path_252" data-name="Path 252" class="cls-1" d="M236.408,255.453q-1.942,6.175-1.942,7.8a29.359,29.359,0,0,0,.175,4.4c.615,1.4,2.8,2.24,6.473,2.544.259-.065.608-1.327,1.049-1.159,3.935.608,7.172.382,9.534-.816-4.026.6-4.11-2.466-3.5-6.6a70.381,70.381,0,0,1,3.152-11c1.049-2.79,3.761-10.143,4.809-13.023v-.544l.175-.227c.356-.893-.874-2.058-3.761-3.456a26.052,26.052,0,0,0-6.628-2.382c-2.628-.375-6.388,3.689-11.372,12.045a162.58,162.58,0,0,0-10.5,20.065c.783-2.453,1.748-5.586,2.887-9.482,2.272-7.7,3.884-13.521,4.809-15.923.874-2.3-3.851-1.9-8.414-1.359-.265.058-.35.259-.35.647v.55c-.35.078-1.23.2-2.712.46s-2.362.382-2.628.44l-.647,2.777c-.259,1.786-.524,4.026-.874,6.738s-.608,4.861-.7,6.065a16.22,16.22,0,0,1-1.223,4.731c.259-1.152.615-3.773,1.049-7.955s.874-7.916,1.139-11.515a37.882,37.882,0,0,0,.259-5.236,5.675,5.675,0,0,1-1.049.071l-.7.168c.35,19.774-3.152,44.182-10.589,73.069.091,1.521,1.055,2.194,2.893,2.123l.175.142c0,.265.35.731.35,1l.175.317c.608-.052,4.11-.8,10.583-2.33-1.489-8.9,1.139-22.855,7.7-41.735a141.559,141.559,0,0,1,8.744-19.489c3.418-6.343,6.214-10.725,8.227-13.107-.265.874-1.139,3.625-2.628,8.149C239.03,247.026,237.631,251.35,236.408,255.453Z" transform="translate(-72.076 -81.468)"/>
    <path id="Path_253" data-name="Path 253" class="cls-1" d="M302.15,230.03c.738-2.155-3.987-3.806-9.825-4.11l-.369.447c-.181.414-.369.544-.46.46a27,27,0,0,0-4.725.194c-2.317,7.249-5.282,20.227-8.984,38.745s-6.3,30.661-7.877,36.052c0,.091.278.142.738.071l.744-2.932c.557-1.942,1.113-3.884,1.573-5.774l.744-2.932-.926,4.706a25.734,25.734,0,0,0-1.023,5.1q2.369,2.091,8.615,1.793c.466-.078,1.2,0,1.482-.045,1.942-.032,3.34-2.874,3.612-5.534l.932-13.224c-1.295,6.123-2.317,9.968-3.062,11.346.466-5.5,2.964-16.181,7.6-32.13C295.477,246.419,299.276,235.629,302.15,230.03Z" transform="translate(-95.208 -79.689)"/>
    <path id="Path_254" data-name="Path 254" class="cls-1" d="M302.378,209.842A4.015,4.015,0,0,0,304.695,211a28.622,28.622,0,0,0,6.285-.382c.647-.123,1.579-1.5,2.783-4.324s4.253-8.615,5.456-11.146q.686-1.832-2.783-2.557a32.162,32.162,0,0,0-8.615,0c-.091,0-.278.285-.557.764l-.369.511c-2.589.388-1.663-.5-2.686.129-2.408,12.719-1.34,9.178-3.469,16.091,0,.291.369.259,1.113,0l.337-1.346c.466-2.188,1.023-4.408,1.482-6.6l.926-3.508a33.347,33.347,0,0,1-.926,5.638Z" transform="translate(-106.083 -67.831)"/>
    <path id="Path_255" data-name="Path 255" class="cls-1" d="M349.318,203.327l-.181-.162-.557.091c-5.094,14.486-12.505,37.677-22.421,69.7-.46,2.686-.926,4.893-1.295,6.6a277.5,277.5,0,0,1,3.884-32.4,297.554,297.554,0,0,1,10.783-43.366c.278-.822-.181-1.521-1.295-1.631s-4.725-.1-7.32-.162l-.369.447c-.091.408-.278.531-.369.453a26.486,26.486,0,0,0-4.725.188,281.016,281.016,0,0,0-9.12,48.726c-1.573,15.075-2.5,27.424-2.874,36.978,0,.1.278.149.744.071l.369-2.867c.278-1.884.557-3.884.835-5.754a11.72,11.72,0,0,1,.557-2.8l-.647,4.66a25.514,25.514,0,0,0-.188,4.964q2.5,2.065,9.172,1.7c.278-.045,1.016,0,1.482-.052a2.848,2.848,0,0,0,1.295-.6,2.964,2.964,0,0,1,1.579.518c.278.246,3.612-8.414,7.767-20.44,2.777-8.007,6.473-17.715,10.278-26.661s8.343-18.408,12.693-24.926c.466-1.139-.278-2.278-2.22-3.236a25.309,25.309,0,0,0-6.952-2.058c-.091-.084-.278.045-.369.447l-.369.252a7.281,7.281,0,0,0-2.5-.168l-1.482,3.236c-.738,1.573-1.107,2.311-1.107,2.311-.1.11,1.016-3.074,3.424-9.664C348.859,204.951,349.318,203.424,349.318,203.327Z" transform="translate(-110.57 -71.252)"/>
    <path id="Path_256" data-name="Path 256" class="cls-1" d="M409.956,232.521a33.153,33.153,0,0,0-7.049,1.243q10.013-11.372,10.007-16.181,0-3.2-5.282-6.4a25.2,25.2,0,0,0-10.466-3.715c-.091-.084-.278-.052-.557.091l-.181.22c-.466.078-2.589-1.418-3.062-1.049-5.094,2.861-10.188,8.926-15.372,18.123a117.515,117.515,0,0,0-11.489,27.832q-3.748,14.13-1.392,20.563a14.944,14.944,0,0,0,7.5,8.071c3.709,1.942,6.673,2.977,8.99,3.087q6.673-1.087,15-11.165a67.38,67.38,0,0,0,12.3-22.654v.194a71.561,71.561,0,0,1-8.712,18.557q-5.689,8.628-11.948,12.991c4.447-2.757,8.712-7.036,12.693-12.913A71.775,71.775,0,0,0,410.2,250c.369-.544-.926-1.01-2.408-1.249-.835-.155-3.236-.537-4.531-.809a4.1,4.1,0,0,0-1.579-.518,3.618,3.618,0,0,0-2.032-.252c-.278,1.294-.647,2.919-1.113,4.731l-.278-.142,1.392-4.589v-.382c-.278-.246-.647,0-.932-.239a55.376,55.376,0,0,1-7.592,19.929c-4.078,6.764-8.058,10.8-11.948,11.923-1.761.77-3.152.129-3.987-1.871-2.408-5.029-.738-14.4,5.094-28.233,4.356-1.773,7.6-2.984,9.709-3.715a56.492,56.492,0,0,1,9.955-2.1,31.767,31.767,0,0,1,12.6.563,12.986,12.986,0,0,1-1.295-2.117,40.673,40.673,0,0,0-13.159.311,59.924,59.924,0,0,0-16.486,5.107,62.136,62.136,0,0,1,19.081-6.693c6.945-1.23,11.579-1.023,13.987.718,2.039-3.916,2.317-6.473.744-7.677C414.96,232.282,413.109,232.2,409.956,232.521Zm-9.45-4.369c-2.311,4.641-4.816,7.469-7.314,8.55-1.579.647-7.689,3.191-9.262,4.13,7.12-12.88,12.945-21.483,17.6-25.729,1.016-1.23,3.424-1.236,3.424-.557a43.943,43.943,0,0,1-4.447,13.605Z" transform="translate(-128.47 -72.899)"/>
    <path id="Path_257" data-name="Path 257" class="cls-1" d="M251.922,140.771q-1.023,2.078-.453,7.418c.227.2,1.359.129,1.586.485,0,.647.078.99.3,1.191,37.9-7.185,52.059-9.78,64.972-9.806.828,0,1.437-1.1,1.812-3.236a33.233,33.233,0,0,0,.375-6.8c0-.233-.6,0-.6-.233a2.991,2.991,0,0,1-.3-1.573c0-.3-10.356.977-14.887,1.864,0-.233.078-.317.155-.33,6.719-1.385,6.576-1.295,13.961-2.816.537-.11.6-.46.3-1.036v-.155c-.375.052-12.945,3.676-60.143,13.029,2.421-1.23,8.233-3.346,17.366-6.265.3-1.417.757-3.236,1.359-5.385,9.062-38.026,11.1-45.308,17.217-64.965.375-.893-.531-1.625-2.589-1.981s-6.188.4-9.528,1.152l-1.146,1.935a21.454,21.454,0,0,1-2.7,3.515c-.078.162,0,.3.3.35a10.57,10.57,0,0,1,2.22.531c-.453,1.359-.951,3.709-1.631,6.324-1.43,5.243-5.01,20.984-5.01,20.984l-.343-.123c.071-.926,3.812-18.68,5.573-25.5-.071-.375-.259-.485-1.094-.647-.751,2.395-12.732,63.891-12.8,65.276l2.11-.265.835-.1a86.387,86.387,0,0,0-15.482,6.473A3.333,3.333,0,0,0,251.922,140.771Z" transform="translate(-88.632 -21.194)"/>
    <path id="Path_258" data-name="Path 258" class="cls-1" d="M207.6,345.964c-59.548,10.24-89.574,17.884-111.154,25.793A105.922,105.922,0,0,0,76.38,391.68a2.686,2.686,0,0,0,1.359.7c.485.1.718.24.686.337-1.256,2.945-1.553,4.531-.919,4.7s2.984-.647,7.282-2.473c3.884-1.683,7.476-3.139,10.654-4.427,3.139-1.191,8.414-3.12,15.767-5.7s15.055-4.848,23.178-7.016c12.207-3.346,31.56-8.686,49.748-12.725,18.738-4.155,32.654-7.042,47.075-9.9,13.249-2.628,27.981-5.139,44.085-7.994l25.826-4.576q-5.534.977-56.143,14.24c-33.748,8.8-50.777,13.534-51.017,14.033l-2.324,4.129q16.518-6.473,64.422-19.217c31.9-8.466,50.253-12.259,55.017-11.2,1.89-6.421,4.253-9.56,3.087-10.628C304.856,331.848,267.386,335.692,207.6,345.964Z" transform="translate(-26.942 -117.603)"/>
  </g>
</svg>
