<?xml version="1.0" encoding="utf-8"?>
<!-- Generator: Adobe Illustrator 23.1.1, SVG Export Plug-In . SVG Version: 6.00 Build 0)  -->
<svg version="1.1" id="Layer_1" xmlns="http://www.w3.org/2000/svg" xmlns:xlink="http://www.w3.org/1999/xlink" x="0px" y="0px"
	 viewBox="0 0 132.1 55.6" style="enable-background:new 0 0 132.1 55.6;" xml:space="preserve">
<style type="text/css">
	.st0{fill:#FFFFFF;}
</style>
<title>Asset 4</title>
<g>
	<g id="Layer_1-2">
		<path class="st0" d="M9,10.7H7.9v5.2H9c0.2,0,0.4-0.1,0.4-0.3c0,0,0-0.1,0-0.1v-4.4C9.4,10.9,9.3,10.7,9,10.7
			C9.1,10.7,9,10.7,9,10.7z"/>
		<path class="st0" d="M9,18.1H7.9V24H9c0.2,0,0.4-0.1,0.4-0.4v-5.2C9.4,18.3,9.3,18.1,9,18.1C9.1,18.1,9,18.1,9,18.1z"/>
		<path class="st0" d="M52.7,10.7h-1.1V24h1.1c0.2,0,0.3-0.1,0.4-0.3c0,0,0-0.1,0-0.1V11.1c0-0.2-0.1-0.3-0.3-0.4
			C52.7,10.7,52.7,10.7,52.7,10.7z"/>
		<path class="st0" d="M55.1,0H0v55.6h132.1V0H55.1z M33.7,8.5h2.2v17.8h-2.2V8.5z M11.6,15.5c0,0.6-0.1,1.1-0.5,1.5
			c0.3,0.4,0.5,1,0.5,1.5v5.9c0,1-0.8,1.9-1.9,1.9H5.6V8.5h4.1c1,0,1.8,0.8,1.9,1.9L11.6,15.5z M20.7,10.6h-3.3v5.2h1.9v2.2h-1.9V24
			h3.3v2.2h-5.6V8.5h5.6L20.7,10.6z M30.2,26.2h-2.2v-8.1h-1.5v8.1h-2.2V8.5h2.2v7.4h1.5V8.5h2.2L30.2,26.2z M36.7,31.4h-1.9V47
			h-2.2V31.5h-1.9v-2.2h5.9L36.7,31.4z M39.5,8.4h2.2l1.8,7.8V8.5h2.2v17.8h-2.2l-1.9-8.2v8.2h-2.2L39.5,8.4z M46.1,47h-2.2v-8.1
			h-1.5v8.2h-2.2V29.2h2.2v7.4h1.5v-7.4h2.2L46.1,47z M55.3,31.5h-3.3v5.2h1.9v2.3h-1.9v5.9h3.3V47h-5.6V29.2h5.6L55.3,31.5z
			 M55.3,24.4c0,0.3,0,0.5-0.2,0.8c-0.3,0.7-1,1.1-1.7,1.1h-4.1V8.5h4.1c0.5,0,1,0.2,1.3,0.5c0.2,0.2,0.3,0.4,0.4,0.6
			c0.1,0.2,0.2,0.5,0.2,0.7L55.3,24.4z M127.7,51.2H61.2V4.4h66.4L127.7,51.2z"/>
		<polygon class="st0" points="71.1,29.4 74.3,29.4 74.3,47.2 79.2,47.2 79.2,8.5 74.3,8.5 74.3,24.6 71.1,24.6 71.1,8.5 66.3,8.5 
			66.3,24.6 66.3,25.9 66.3,47.2 71.1,47.2 		"/>
		<polygon class="st0" points="88.4,20.6 89.4,33.1 89.5,33.1 90.6,47.2 95.5,47.2 94.2,31.6 94.2,31.6 92.2,8.5 84.6,8.5 
			81.3,47.2 86.2,47.2 		"/>
		<polygon class="st0" points="97.1,41 97.7,47.2 109.2,47.2 109.2,42.3 101.8,42.3 110.6,8.5 106.4,8.5 105.7,8.5 97.1,8.5 
			97.1,13.3 104.4,13.3 		"/>
		<polygon class="st0" points="123.4,42.3 116.2,42.3 116.2,29.4 120.2,29.4 120.2,24.6 116.2,24.6 116.2,13.3 123.4,13.3 
			123.4,8.5 112.9,8.5 111.3,14.5 111.3,24.6 111.3,25 111.3,47.2 123.4,47.2 		"/>
	</g>
</g>
</svg>
