<svg xmlns="http://www.w3.org/2000/svg" width="149.641" height="144.304" viewBox="0 0 149.641 144.304">
  <g id="Group_2520" data-name="Group 2520" transform="translate(-138 0.102)">
    <rect id="Rectangle_1" data-name="Rectangle 1" width="149.641" height="144.304" transform="translate(138 -0.102)" fill="#e5e2d1"/>
    <g id="Group_1316" data-name="Group 1316" transform="translate(-6)">
      <g id="Group_1" data-name="Group 1" transform="translate(172.628 57.744)">
        <path id="Path_1" data-name="Path 1" d="M235.176,404.58h-6.126v18.09a5.828,5.828,0,1,1-11.656,0V404.58h-6.126l6.825-20.305H200.338v37.819c0,12.384,7.949,18.828,23.344,18.828,14.725,0,22.424-6.778,22.424-19.661V384.275H228.35Z" transform="translate(-200.338 -384.275)" fill="#10cfc9"/>
        <path id="Path_2" data-name="Path 2" d="M280.68,388.708c-4.1-3.179-8.87-4.431-17.488-4.431H239.43v55.808h17.319V419.837h9.707c12.3,0,20.414-7.112,20.414-17.742a17.158,17.158,0,0,0-6.19-13.387m-18.409,19.161h-5.688V397.076h6.19c4.769,0,7.031,1.759,7.031,5.357,0,3.68-2.43,5.436-7.533,5.436" transform="translate(-189.566 -384.274)" fill="#10cfc9"/>
      </g>
    </g>
    <g id="Group_1365" data-name="Group 1365" transform="translate(1)">
      <g id="Group_2" data-name="Group 2" transform="translate(165.456 35.123)">
        <path id="Path_3" data-name="Path 3" d="M224.033,385.421h5.274L223.39,366.54h-6.115l-5.832,18.881h4.846l3.873-11.517Z" transform="translate(-197.106 -366.54)" fill="#53101c"/>
        <path id="Path_4" data-name="Path 4" d="M254.963,380.918h-8.491v-3.084h6.879v-4.191h-6.879V370.9h8.491V366.54H240.782v18.881h14.182Z" transform="translate(-189.022 -366.54)" fill="#53101c"/>
        <path id="Path_5" data-name="Path 5" d="M257.751,376.278a12.072,12.072,0,0,0-.452-3.087,29.962,29.962,0,0,0,2.012,3.907l5.151,8.323h4.726V366.541h-4.726v5.6c0,.226.027.68.056,1.332.028.68.055,1.158.084,1.386.059.62.115,1.133.311,2.236a13.552,13.552,0,0,0-.9-1.785c-.625-1.131-.765-1.33-1.106-1.867l-4.389-6.906h-5.463v18.881h4.7Z" transform="translate(-185.641 -366.54)" fill="#53101c"/>
        <path id="Path_6" data-name="Path 6" d="M266.323,366.54v4.528h3.907v14.352h5.491V371.068h3.908V366.54Z" transform="translate(-181.984 -366.54)" fill="#53101c"/>
        <path id="Path_7" data-name="Path 7" d="M239.525,377.211c2.462-1.216,3.343-2.547,3.343-4.98,0-3.54-2.606-5.691-6.855-5.691h-9.879v18.881h5.8v-7.19h1.811l2.774,7.19h6.4Zm-5.123-3.028h-2.464V370.56H234.6c1.413,0,2.237.679,2.237,1.81s-.88,1.813-2.435,1.813" transform="translate(-193.058 -366.54)" fill="#53101c"/>
        <path id="Path_8" data-name="Path 8" d="M214.031,368.04c-1.388-1.076-3-1.5-5.915-1.5H200.2v18.881h5.734V378.57h3.283c4.162,0,6.906-2.4,6.906-6a5.8,5.8,0,0,0-2.094-4.531m-6.227,6.482H205.88V370.87h2.094c1.612,0,2.376.593,2.376,1.812,0,1.244-.819,1.839-2.547,1.839" transform="translate(-200.203 -366.54)" fill="#53101c"/>
      </g>
    </g>
  </g>
</svg>
