<?xml version="1.0" encoding="utf-8"?>
<!-- Generator: Adobe Illustrator 25.2.1, SVG Export Plug-In . SVG Version: 6.00 Build 0)  -->
<svg version="1.1" id="Layer_1" xmlns="http://www.w3.org/2000/svg" xmlns:xlink="http://www.w3.org/1999/xlink" x="0px" y="0px"
	 viewBox="0 0 585.9 113.4" style="enable-background:new 0 0 585.9 113.4;" xml:space="preserve">
<style type="text/css">
	.st0{fill:#005CB9;}
	.st1{fill:#1C3664;}
	.st2{fill-rule:evenodd;clip-rule:evenodd;fill:#FFFFFF;}
	.st3{fill:#FFFFFF;}
</style>
<path class="st0" d="M579.9,13.5H363.8v1h216.1c2.8,0,5,2.2,5,5v68.7c0,2.8-2.2,5-5,5h-3.6v1h3.6c3.3,0,6-2.7,6-6V19.5
	C585.9,16.2,583.2,13.5,579.9,13.5z"/>
<path class="st1" d="M144.7,15.9h2c0.2,1.6,1.7,2.8,3.3,2.7c2,0,3-1.2,3-2.5s-1.3-2.1-2.6-2.4l-2-0.4c-3.2-0.8-3.7-2.6-3.7-3.8
	c0-2.6,2.3-4.2,4.9-4.2s4.7,1.7,4.7,4.3h-1.9c-0.2-1.6-1.6-2.7-3.2-2.5c-1.3,0.2-2.3,1.1-2.5,2.4c0,0.5,0.2,1.6,2.2,2.1l2,0.5
	c2.5,0.6,4,2,4,4.1c0,2.3-1.9,4.4-5,4.4S144.8,18.2,144.7,15.9z"/>
<path class="st1" d="M159.2,12.7c0-4.2,3.5-7.5,7.6-7.5c4.2,0,7.5,3.5,7.5,7.6c0,4.2-3.4,7.5-7.6,7.5
	C162.6,20.4,159.2,17,159.2,12.7C159.2,12.8,159.2,12.8,159.2,12.7z M172.3,12.7c-0.1-3.1-2.7-5.5-5.8-5.3c-3.1,0.1-5.5,2.7-5.3,5.8
	c0.1,3,2.6,5.3,5.6,5.3C169.9,18.5,172.4,15.9,172.3,12.7C172.3,12.8,172.3,12.8,172.3,12.7z"/>
<path class="st1" d="M179.4,15.1V5.2h2v9.8c0,1.9,1.6,3.5,3.5,3.5s3.5-1.6,3.5-3.5l0,0V5.2h2v9.8c0,3-2.4,5.4-5.4,5.4
	S179.5,18.1,179.4,15.1L179.4,15.1z"/>
<path class="st1" d="M205.9,7.1h-4.6v13.1h-2V7.1h-4.6V5.2h11.1L205.9,7.1z"/>
<path class="st1" d="M221.9,5.2v15h-2v-6.5h-7.3v6.5h-2v-15h2v6.6h7.3V5.2H221.9z"/>
<path class="st1" d="M234.8,12.7c0-4.2,3.3-7.6,7.5-7.7c0,0,0,0,0,0c2.2,0,4.2,0.9,5.6,2.5l-1.4,1.2c-1-1.2-2.6-1.9-4.2-1.9
	c-3.2,0.1-5.7,2.9-5.6,6.1c0.1,3,2.6,5.5,5.6,5.6c1.6,0,3.1-0.7,4.2-1.9l1.4,1.2c-1.4,1.6-3.5,2.6-5.6,2.5
	C238.1,20.4,234.8,17,234.8,12.7C234.8,12.8,234.8,12.7,234.8,12.7z"/>
<path class="st1" d="M260.9,16.3h-6.4l-1.4,3.8h-2.1l5.7-14.9h2.1l5.7,14.9h-2L260.9,16.3z M260.2,14.6l-2.6-6.8l-2.6,6.8H260.2z"/>
<path class="st1" d="M272.6,14.5h-2v5.7h-2v-15h5.6c3.2,0,4.5,2.4,4.5,4.7c0,2.2-1.1,4.3-3.9,4.6l4,5.7h-2.4L272.6,14.5z
	 M270.6,12.7h3.1c2.2,0,3.1-1.2,3.1-2.8c0.2-1.4-0.8-2.7-2.2-2.8c-0.1,0-0.2,0-0.3,0h-3.7V12.7z"/>
<path class="st1" d="M283.2,12.7c0-4.2,3.5-7.5,7.6-7.5c4.2,0,7.5,3.5,7.5,7.6c0,4.2-3.4,7.5-7.6,7.5
	C286.5,20.4,283.2,17,283.2,12.7C283.2,12.8,283.2,12.8,283.2,12.7z M296.3,12.7c-0.1-3.1-2.7-5.5-5.8-5.3c-3.1,0.1-5.5,2.7-5.3,5.8
	c0.1,3,2.6,5.3,5.6,5.3C293.9,18.5,296.4,15.9,296.3,12.7C296.3,12.8,296.3,12.8,296.3,12.7L296.3,12.7z"/>
<path class="st1" d="M303.6,5.2h2v13.1h6.1v1.8h-8.1L303.6,5.2z"/>
<path class="st1" d="M316.4,5.2h2v15h-2V5.2z"/>
<path class="st1" d="M335.4,5.2v15h-1.9l-6.9-11.4v11.4h-2v-15h2l6.9,11.3V5.2H335.4z"/>
<path class="st1" d="M349.7,16.3h-6.4l-1.4,3.8h-2.1l5.7-14.9h2.1l5.7,14.9h-2.1L349.7,16.3z M349,14.6l-2.6-6.8l-2.6,6.8H349z"/>
<path class="st1" d="M151.8,98.9l0.9,1.5l-0.9,0.6l-1-1.6c-0.5,0.2-1,0.2-1.5,0.2c-2.6,0-4.6-2.1-4.6-4.6s2.1-4.6,4.6-4.6
	c2.6,0,4.6,2.1,4.6,4.6C154,96.6,153.2,98.1,151.8,98.9L151.8,98.9z M150.2,98.4l-1-1.6l0.9-0.6l1.1,1.7c1-0.7,1.6-1.8,1.6-3
	c-0.1-1.9-1.7-3.4-3.6-3.3c-1.9,0.1-3.4,1.7-3.3,3.6c0.1,1.8,1.6,3.3,3.4,3.3C149.6,98.5,149.9,98.5,150.2,98.4z"/>
<path class="st1" d="M155.8,96.4v-6h1.2v6c0,1.2,0.9,2.1,2.1,2.1c1.2,0,2.1-0.9,2.1-2.1v-6h1.2v6c0,1.8-1.5,3.3-3.3,3.3
	S155.8,98.2,155.8,96.4L155.8,96.4z"/>
<path class="st1" d="M164.9,90.4h1.2v9.1h-1.2V90.4z"/>
<path class="st1" d="M174.4,91.5h-2.8v8h-1.2v-8h-2.8v-1.1h6.8L174.4,91.5z"/>
<path class="st1" d="M182.5,90.4v9.1h-1.2l-4.2-7v7h-1.2v-9.1h1.2l4.2,6.9v-6.9H182.5z"/>
<path class="st1" d="M184.4,95c0-2.6,2.1-4.6,4.7-4.6c2.6,0,4.6,2.1,4.6,4.7c0,2.5-2.1,4.6-4.6,4.6C186.5,99.6,184.4,97.6,184.4,95
	C184.4,95,184.4,95,184.4,95z M192.5,95c-0.1-1.9-1.7-3.4-3.6-3.3s-3.4,1.7-3.3,3.6c0.1,1.8,1.6,3.3,3.4,3.3
	C191,98.5,192.5,96.9,192.5,95C192.5,95,192.5,95,192.5,95L192.5,95z"/>
<path class="st1" d="M206,90.4l-3.1,9.1h-1l-1.6-5.8l-1.6,5.8h-1.1l-3.1-9.1h1.3l2.3,7.2l1.7-6h0.9l1.7,6l2.3-7.2L206,90.4z"/>
<path class="st1" d="M206.3,98c0-0.5,0.4-0.8,0.9-0.8c0.5,0,0.8,0.4,0.8,0.8c0,0.5-0.4,0.8-0.9,0.8C206.7,98.8,206.3,98.4,206.3,98z
	"/>
<path class="st1" d="M216.6,90.4v9.1h-1.2l-4.2-7v7H210v-9.1h1.2l4.2,6.9v-6.9H216.6z"/>
<path class="st1" d="M224.7,98.4v1.1h-5.5v-9.1h5.4v1.1h-4.2v3h3.7v1.1h-3.7v2.8L224.7,98.4z"/>
<path class="st1" d="M232.3,91.5h-2.8v8h-1.2v-8h-2.8v-1.1h6.8V91.5z"/>
<path class="st1" d="M236.8,90.4h1.1l-4.5,9.1h-1.1L236.8,90.4z"/>
<path class="st1" d="M238.9,96.8h2.1c0.1,0.6,0.7,1.1,1.3,1c0.7,0,1.2-0.3,1.2-0.9c0-0.4-0.2-0.7-1-1l-1.1-0.3
	c-2-0.5-2.4-1.8-2.4-2.6c0-1.7,1.4-2.8,3.2-2.8c1.5-0.2,2.9,1,3.1,2.5c0,0.1,0,0.2,0,0.3h-2.1c0-0.6-0.6-1-1.2-1
	c-0.5,0-0.9,0.4-1,0.9c0,0.2,0,0.6,0.9,0.8l1,0.3c1.3,0.4,2.6,1.1,2.6,2.7c0,2-1.7,2.8-3.4,2.8C240.2,99.6,238.9,98.5,238.9,96.8z"
	/>
<path class="st1" d="M246.6,94.9c0-2.6,2.1-4.7,4.7-4.6c2.6,0,4.7,2.1,4.6,4.7c0,2.6-2.1,4.6-4.7,4.7
	C248.7,99.6,246.6,97.6,246.6,94.9C246.6,95,246.6,95,246.6,94.9z M253.8,94.9c-0.1-1.4-1.3-2.5-2.7-2.4c-1.4,0.1-2.5,1.3-2.4,2.7
	c0.1,1.4,1.2,2.4,2.6,2.4c1.4,0,2.6-1.1,2.6-2.6C253.8,95,253.8,95,253.8,94.9z"/>
<path class="st1" d="M257.3,96.2v-5.8h2.1V96c0,0.8,0.7,1.5,1.5,1.5s1.5-0.7,1.5-1.5l0,0v-5.7h2.1v5.8c0,2-1.6,3.6-3.6,3.6
	C259,99.7,257.4,98.1,257.3,96.2L257.3,96.2z"/>
<path class="st1" d="M272.6,92.2h-2.4v7.3h-2.1v-7.3h-2.4v-1.8h6.9L272.6,92.2z"/>
<path class="st1" d="M281.1,90.4v9.1H279v-3.6h-3v3.6h-2.1v-9.1h2.1V94h3v-3.7H281.1z"/>
<path class="st1" d="M282.7,94.9c0-2.6,2.1-4.7,4.6-4.7c1.5,0,3,0.8,3.9,2l-1.6,1.1c-0.5-0.7-1.3-1.2-2.1-1.2
	c-1.5,0.1-2.6,1.4-2.6,2.9c0.1,1.4,1.2,2.5,2.6,2.6c0.9,0,1.7-0.4,2.1-1.2l1.6,1.1c-1.4,2.1-4.3,2.7-6.5,1.2
	C283.5,97.9,282.7,96.5,282.7,94.9L282.7,94.9z"/>
<path class="st1" d="M297.5,97.4h-3.2l-0.7,2.1h-2.2l3.4-9.1h2.3l3.4,9.1h-2.2L297.5,97.4z M296.9,95.6l-1-3.2l-1,3.2H296.9z"/>
<path class="st1" d="M303.8,96.3h-0.4v3.2h-2.1v-9.1h3.7c1.6-0.1,3,1.1,3.1,2.7c0,0.1,0,0.2,0,0.3c0.1,1.3-0.8,2.5-2.1,2.8l2.4,3.3
	h-2.4L303.8,96.3z M303.4,94.7h1.3c0.7,0.1,1.2-0.4,1.3-1.1c0-0.1,0-0.1,0-0.2c0-0.7-0.5-1.2-1.2-1.3c0,0-0.1,0-0.1,0h-1.4V94.7z"/>
<path class="st1" d="M309.3,94.9c0-2.6,2.1-4.6,4.7-4.6c2.6,0,4.6,2.1,4.6,4.7c0,2.6-2.1,4.6-4.7,4.6
	C311.4,99.6,309.3,97.6,309.3,94.9C309.3,95,309.3,95,309.3,94.9z M316.5,94.9c-0.1-1.4-1.3-2.5-2.7-2.4c-1.4,0.1-2.5,1.3-2.4,2.7
	c0.1,1.4,1.2,2.4,2.6,2.4c1.4,0,2.6-1.1,2.6-2.5C316.5,95.1,316.5,95,316.5,94.9z"/>
<path class="st1" d="M320.2,90.4h2.1v7.3h3.4v1.8h-5.4V90.4z"/>
<path class="st1" d="M326.9,90.4h2.1v9.1h-2.1V90.4z"/>
<path class="st1" d="M338,90.4v9.1h-1.8l-3-5.2v5.2h-2.1v-9.1h1.9l2.9,5.2v-5.2H338z"/>
<path class="st1" d="M345.1,97.4h-3.2l-0.7,2.1H339l3.4-9.1h2.3l3.4,9.1h-2.2L345.1,97.4z M344.5,95.6l-1-3.2l-1,3.2H344.5z"/>
<path class="st0" d="M563,109.2H363.1c-3.4,0-6.2-2.8-6.2-6.2V84.3c0-3.4,2.8-6.2,6.2-6.2H563c3.4,0,6.2,2.8,6.2,6.2V103
	C569.2,106.4,566.4,109.2,563,109.2z M363.1,79.6c-2.6,0-4.7,2.1-4.7,4.7V103c0,2.6,2.1,4.7,4.7,4.7H563c2.6,0,4.7-2.1,4.7-4.7V84.3
	c0-2.6-2.1-4.7-4.7-4.7H363.1z"/>
<path class="st1" d="M369.3,85.2v15.9h-2.1V88.2l-3.3,1.4v-2L369.3,85.2L369.3,85.2z"/>
<path class="st1" d="M373.2,94.5h8.4v2h-8.4V94.5z"/>
<path class="st1" d="M396.1,96.4c0,2.9-2.5,4.9-5.9,4.9s-5.9-2-5.9-4.9c0-2,1.2-3.8,3-4.4c-1-0.6-1.6-1.7-1.6-2.9
	c0-2.2,1.8-3.9,4.5-3.9s4.5,1.7,4.5,3.9c0,1.2-0.6,2.3-1.6,2.9C395,92.7,396.2,94.5,396.1,96.4z M393.9,96.3
	c-0.1-1.9-1.7-3.3-3.6-3.2c0,0-0.1,0-0.1,0c-1.9-0.2-3.6,1.3-3.7,3.1c0,0,0,0,0,0c0,1.8,1.6,3.1,3.7,3.1S393.9,98,393.9,96.3z
	 M387.9,89.3c0.1,1.2,1.1,2.1,2.3,2c0,0,0,0,0,0c1.2,0.1,2.2-0.8,2.3-2c0,0,0,0,0,0c-0.1-1.3-1.2-2.2-2.5-2.1
	C388.9,87.3,388,88.2,387.9,89.3z"/>
<path class="st1" d="M398.7,93.3c0-4.5,1.2-8.1,5.7-8.1s5.7,3.6,5.7,8.1s-1.2,8.1-5.7,8.1S398.7,97.7,398.7,93.3z M408,93.3
	c0-3.3-0.7-6.1-3.6-6.1s-3.6,2.8-3.6,6.1s0.7,6.1,3.6,6.1S408,96.6,408,93.3z"/>
<path class="st1" d="M413,93.3c0-4.5,1.2-8.1,5.7-8.1s5.7,3.6,5.7,8.1s-1.2,8.1-5.7,8.1S413,97.7,413,93.3z M422.3,93.3
	c0-3.3-0.7-6.1-3.6-6.1s-3.6,2.8-3.6,6.1s0.7,6.1,3.6,6.1S422.3,96.6,422.3,93.3z"/>
<path class="st1" d="M427.4,94.5h8.4v2h-8.4V94.5z"/>
<path class="st0" d="M451.7,99.8l1.6,2.7l-2.4,1.4l-1.8-2.9c-0.8,0.2-1.5,0.3-2.3,0.3c-4.7,0-8.5-3.7-8.6-8.4c0-4.7,3.7-8.5,8.4-8.6
	s8.5,3.7,8.6,8.4c0,0,0,0,0,0C455.3,95.6,453.9,98.2,451.7,99.8z M447.4,98.2l-1.4-2.4l2.4-1.4l1.7,2.7c1.3-1.1,2-2.6,1.9-4.3
	c-0.2-2.8-2.6-5-5.4-4.8c-2.8,0.2-5,2.6-4.8,5.4c0.1,2.7,2.4,4.8,5.1,4.8C447,98.2,447.2,98.2,447.4,98.2z"/>
<path class="st0" d="M458.1,95.2V84.5h3.4V95c0,1.7,1.3,3,3,3s3-1.3,3-3V84.5h3.4v10.7c-0.1,3.5-3.1,6.2-6.6,6.1
	C460.9,101.1,458.3,98.5,458.1,95.2L458.1,95.2z"/>
<path class="st0" d="M474.7,84.5h3.4v16.6h-3.4V84.5z"/>
<path class="st0" d="M493,87.5h-4.6v13.6h-3.4V87.5h-4.6v-3H493V87.5z"/>
<path class="st1" d="M495.1,94.5h8.3v2h-8.3V94.5z"/>
<path class="st0" d="M519.5,84.5v16.6h-3l-6-10.4v10.4h-3.4V84.5h3.1l5.9,10.3V84.5H519.5z"/>
<path class="st0" d="M522.6,92.8c0-4.7,3.8-8.4,8.5-8.4c4.7,0,8.4,3.8,8.4,8.5c0,4.6-3.8,8.4-8.4,8.4
	C526.3,101.3,522.5,97.6,522.6,92.8C522.5,92.9,522.5,92.9,522.6,92.8z M536.1,92.8c-0.2-2.8-2.6-5-5.4-4.8s-5,2.6-4.8,5.4
	c0.1,2.7,2.4,4.8,5.1,4.8c2.8,0,5.1-2.3,5.1-5.2C536.1,93,536.1,92.9,536.1,92.8L536.1,92.8z"/>
<path class="st0" d="M561.7,84.5l-5.6,16.6h-2.7l-2.4-9l-2.4,9h-2.7l-5.6-16.6h3.6l3.4,10.8l2.3-8.5h2.7l2.3,8.5l3.4-10.8
	L561.7,84.5z"/>
<path class="st0" d="M173.3,37.6h-10V68h-8.6V37.6h-10v-7.5h28.6V37.6z"/>
<path class="st0" d="M171.9,55.1c0-8.1,6.6-13.4,13.9-13.4s14,5.3,14,13.4s-6.6,13.4-14,13.4S171.9,63.2,171.9,55.1z M191.5,55.1
	c-0.1-3.1-2.7-5.6-5.8-5.5c-3.1,0.1-5.6,2.7-5.5,5.8c0.1,3.1,2.6,5.5,5.7,5.5c3.1,0,5.6-2.5,5.7-5.6
	C191.5,55.3,191.5,55.2,191.5,55.1z"/>
<path class="st0" d="M233.6,55.1c0,8.3-6,13.4-12.5,13.4c-2.6,0-6.1-1-7.9-3.3V68H205V28.8h8.1v16.3c1.9-2.4,5.3-3.3,7.9-3.3
	C227.5,41.8,233.6,46.8,233.6,55.1z M225.3,55.1c0.1-3.3-2.5-6-5.8-6.1c-3.3-0.1-6,2.5-6.1,5.8s2.5,6,5.8,6.1c0.1,0,0.1,0,0.2,0
	C222.6,60.9,225.3,58.3,225.3,55.1L225.3,55.1z"/>
<path class="st0" d="M265.9,42.3V68h-8.1v-2.9c-1.9,2.4-5.3,3.4-8,3.4c-6.4,0-12.4-5.1-12.4-13.4s6-13.3,12.4-13.3
	c2.6,0,6.1,1,8,3.4v-2.8H265.9z M257.5,55.1c0.1-3.3-2.5-6-5.8-6c-3.3-0.1-6,2.5-6,5.8c-0.1,3.3,2.5,6,5.8,6c0.1,0,0.1,0,0.2,0
	C254.9,60.9,257.5,58.3,257.5,55.1z"/>
<path class="st0" d="M271.3,55.1c0-8.1,6.6-13.4,14.1-13.4c4.5,0,8.8,2.2,11.2,6.1l-6.3,4c-1.2-1.6-3-2.5-4.9-2.6
	c-3.2-0.1-6,2.4-6.1,5.6s2.4,6,5.6,6.1c0.2,0,0.3,0,0.5,0c1.9,0,3.7-0.9,4.9-2.4l6.3,4c-2.5,3.8-6.7,6-11.2,6
	C277.9,68.5,271.3,63.2,271.3,55.1z"/>
<path class="st0" d="M299.6,55.1c0-8.1,6.6-13.4,14.1-13.4c4.5,0,8.8,2.2,11.2,6.1l-6.3,4c-1.1-1.6-3-2.5-4.9-2.6
	c-3.2-0.1-6,2.4-6.1,5.6s2.4,6,5.6,6.1c0.2,0,0.3,0,0.5,0c1.9,0,3.7-0.9,4.9-2.5l6.3,4c-2.5,3.8-6.7,6-11.2,6
	C306.2,68.5,299.6,63.2,299.6,55.1z"/>
<path class="st0" d="M327.9,55.1c0-8.1,6.6-13.4,13.9-13.4s14,5.3,14,13.4s-6.6,13.4-14,13.4S327.9,63.2,327.9,55.1z M347.5,55.1
	c-0.1-3.1-2.7-5.6-5.8-5.5c-3.1,0.1-5.6,2.7-5.5,5.8c0.1,3.1,2.6,5.5,5.7,5.5c3.1,0,5.6-2.4,5.7-5.5
	C347.5,55.3,347.5,55.2,347.5,55.1z"/>
<path class="st1" d="M369.3,49c0.1-10.7,8.8-19.3,19.5-19.2c10.7,0.1,19.3,8.8,19.2,19.5c-0.1,10.6-8.7,19.2-19.3,19.2
	c-10.6,0-19.3-8.6-19.4-19.2C369.3,49.2,369.3,49.1,369.3,49z M399.3,49c0-6.3-4.4-11.3-10.7-11.3S378,42.7,378,49
	s4.2,11.3,10.6,11.3S399.2,55.3,399.3,49L399.3,49z"/>
<path class="st1" d="M438.8,42.3V68h-8.1v-4.4c-0.9,3.6-5,5.1-7.4,5.1c-6.8,0-10.2-4.6-10.2-12.5V42.3h8.2v12.8
	c0,3.9,2.4,5.4,4.5,5.4s5-1.2,5-5.4V42.3H438.8z"/>
<path class="st1" d="M444.6,33.7c0.1-2.7,2.3-4.8,5-4.7c0,0,0,0,0,0c2.6-0.1,4.9,2,4.9,4.6c0,0,0,0.1,0,0.1c-0.1,2.7-2.3,4.8-5,4.7
	C447,38.5,444.8,36.4,444.6,33.7z M445.6,42.4h8.1V68h-8.2L445.6,42.4z"/>
<path class="st1" d="M476.8,48.4h-5.4V68h-8.1V48.4h-4.7v-6.1h4.7v-9.2h8.1v9.2h5.4L476.8,48.4z"/>
<path class="st1" d="M481.2,28.8h8.1V68h-8.1L481.2,28.8z"/>
<path class="st1" d="M495.2,33.7c0.1-2.7,2.3-4.8,5-4.7c2.6-0.1,4.9,1.9,5,4.6c0,0.1,0,0.1,0,0.2c-0.1,2.7-2.3,4.8-5,4.7
	c0,0,0,0,0,0C497.5,38.5,495.3,36.4,495.2,33.7z M496.2,42.4h8.2V68h-8.1L496.2,42.4z"/>
<path class="st1" d="M536.8,54.2V68h-8.1V55.1c0-4-2.4-5.4-4.5-5.4c-2.2,0-5,1.2-5,5.4V68h-8.1V42.3h8.1v4.6c0.9-3.6,5-5.2,7.4-5.2
	C533.4,41.7,536.8,46.3,536.8,54.2z"/>
<path class="st1" d="M569,57.5h-18.8c0.8,2.4,2.9,3.8,6,3.8c2.4,0,4.7-0.9,6.5-2.5l4.2,5.3c-2.5,2.8-6.9,4.3-11.3,4.3
	c-8.1,0-13.8-5.4-13.8-13.2c0-8.3,6.5-13.5,13.8-13.5s13.5,5.1,13.5,12.9C569.2,55.3,569.1,56.3,569,57.5z M561,52.7
	c-0.1-2.5-2.3-4.2-5.2-4.2c-2.6-0.2-5,1.6-5.6,4.2H561z"/>
<polygon class="st1" points="6.6,13.2 13.9,10.7 16.2,10.8 19.9,8.2 24.5,7.4 26.7,6.4 28.8,6.1 53.4,6.9 62.5,7.6 64.3,9.9 
	66.5,9.4 69.5,13.2 70,15.6 69.9,17.7 70.4,18.4 101,17.9 131.8,47.1 132.7,48.1 132.5,49.3 130.3,50.3 124.8,54.6 119.1,62.4 
	117.7,64.5 116.5,71.5 116,69.3 114,68.2 116.1,64.1 115.4,64.4 113.9,66.5 113.3,68.9 115.2,70.7 116.5,72.9 114.4,74.7 
	112.4,73.8 113.6,75.2 111.9,76.9 110.8,78.9 108.7,79.2 106.7,78.3 105,80.1 105.5,82.5 103.9,83.3 102.4,85.2 100.2,87 98.1,87.2 
	97.5,85 95.7,84.7 96.1,87.9 98,89 96.7,91.2 94.4,91.9 94.5,93.2 91.9,93.4 89.6,94.8 87.7,93.4 88.7,94.9 86.6,96.4 84.6,96.4 
	82.3,97.1 79.8,96.1 75.4,97.4 77,97.4 78.9,98.7 81.2,99 81.9,100.2 80.2,102.1 82.5,100.3 81,103.6 78.5,105 76.6,103.4 
	75.7,99.3 74.9,103.6 73.1,101.5 72.4,99.2 70.9,97.4 72.4,101.8 72.7,103.9 73.6,105.5 75.4,107.5 73.6,109.3 72.2,109.3 
	72.5,107.3 71.4,109.2 69.7,113.4 68.7,112.8 67.8,112.1 63.5,110.8 62.4,108.6 62.3,106.4 62.8,104.4 61.5,101.9 60.7,99.5 
	59.4,97 56.5,95.3 54.6,93.6 54.4,91.2 54.6,89.1 53.9,86.7 51.9,83.1 52,81 47.9,77.7 45.9,76.7 44.1,74.4 44.2,74 42,72.8 
	41.9,70.7 39.8,69.1 39.3,67 39.7,65.5 38,64.2 35.3,61.3 33,60.6 31.8,59.2 30.7,56.5 29,53.9 25.1,51.2 21.2,47.8 16.6,40.1 
	16.1,38 14.4,35.2 13.6,33 11.6,30.8 8.5,30.8 4.8,26.9 2.8,26.2 0.7,24.6 0,22.4 0.9,20.2 5.9,14.8 "/>
<path id="path557" class="st2" d="M28.9,27c-3.4,11.3,10.3,20.5,19.6,12.3C58.3,29,47.3,15.2,36,19.6c4.5-0.9,9,2.1,9.8,6.6
	c0.5,2.7-0.3,5.5-2.2,7.4c-3.3,3.4-8.8,3.5-12.2,0.2C29.7,32,28.7,29.5,28.9,27z"/>
<path id="path554" class="st2" d="M88.5,25.6c-0.4,0.3-0.8,0.7-0.9,1.2c-0.4,1.3-0.9,2.6-1.3,3.9c-0.2,0.6-0.4,1.2-0.7,1.8
	c-0.4-0.1,0.2-0.8,0.1-1.1c0.2-0.6,0.4-1.2,0.5-1.9c-0.1-0.5,0-1.1-0.2-1.5c-0.4,0.8-0.8,1.6-1.1,2.5c-0.2,1-0.5,2-0.7,3
	C84.1,34,84,34.5,83.9,35c-0.4,0-0.3-0.8-0.6-1.1c-0.3-0.7-0.6-1.4-1-2c-0.2-0.2-0.6-1.4-0.6-0.7c0,0.5-0.1,1-0.1,1.4l-2.9-5.3
	c0,0.6,0.1,1.2,0.2,1.7c0.5,1,0.9,2,1.3,3c-0.2,0.2-0.3-0.2-0.4-0.3l-2.6-4.6c-0.4,0.2-0.1,0.7-0.2,1.1c0.2,0.5,0.4,1,0.7,1.4
	l1.3,2.3c-0.3,0.3-0.5-0.6-0.7-0.8c-0.8-1.4-1.6-2.8-2.4-4.1c-0.3,0.1-0.5,0.4-0.4,0.7c0,0,0,0,0,0c0,0.3,0.1,0.7,0.3,0.9l1.9,3.2
	c-0.2,0.2-0.3-0.1-0.4-0.3l-3-4.7c-0.2-0.1-0.6-0.4-0.5,0.1c-0.1,0.6,0.5,1,0.8,1.5c0.9,1.4,1.8,2.8,2.7,4.1
	c-0.2,0.2-0.3-0.1-0.4-0.2L75.2,30c-0.2,0-0.5-0.2-0.4,0.2c0.1,0.3-0.1,0.5,0.1,0.6c0.9,1.3,1.8,2.7,2.7,4c0.3,0.6,0.6,1.2,0.9,1.8
	l1.5,1.7c-0.4,0.3-0.7-0.6-1.1-0.8C78.4,37,78,36.5,77.7,36c-0.2-0.5-0.5-0.9-0.8-1.2c-0.4-0.3-0.8-1-1.3-1.1
	c-0.2,0.5,0,1.1,0.5,1.5c0,0.1,0.8,0.6,0.4,0.5c-0.8-0.1-1.5-0.3-2.2-0.6c-0.4,0.4,1,0.8,0.2,0.9c-0.6,0-1.1-0.5-1.6-0.7
	c-1.4-0.8-2.8-1.4-4.2-2.1l-0.9-0.3c-0.1,0.5,0.7,0.7,1,1c1.1,0.6,2.1,1.1,3.2,1.7c0,0.3-0.3,0.1-0.5,0l-6-1.9
	c-0.3-0.1-0.3,0.1-0.1,0.3s0.3,0.3,0.5,0.3l4.7,1.6c0.1,0.2,0.1,0.5,0.2,0.7c-0.3-0.3-0.7-0.6-1.2-0.7c-1-0.1-2.1-0.1-3.1,0
	c-0.6-0.1-0.6,0.3-0.1,0.4c0.4,0.3,1,0.2,1.5,0.2l2.5-0.1c0.2,0.5-0.8,0.2-0.8,0.5c0,0.4,0.8,0.5,1.1,0.4c0.5,0,0.8-0.7,1.2-0.6
	c-0.1,0.5-0.9,0.6-1,1c-0.1,0.4,0.9,0.3,1.2,0.1c0.3-0.2,0.9-0.7,0.9,0s0.9,0.4,1.4,0.6c0.8,0.1,1.7,0.2,2.5,0.3l2.3,1.1
	c-0.2,0.5-0.9-0.2-1.2-0.2c-0.6-0.2-1.2-0.4-1.8-0.5c-0.5-0.1-1.1-0.1-1.6,0c-1.7,0.1-3.3,0.2-4.9,0.4L65,40.4
	c-0.4,0.1-1.2,0.3-0.4,0.5c1.7-0.1,3.5-0.2,5.2-0.4c0.1,0.3-0.2,0.2-0.4,0.2L65,41.2c-0.4,0.3-1,0.5-1.3,1c0.1,0.8,1,0.1,1.5,0.1
	c1.2-0.2,2.5-0.4,3.7-0.8c0.4,0,1.3-0.6,1.3-0.2c-1.4,0.4-2.7,0.8-4.1,1.2l-0.9,0.2c-0.1,0.7,1,0.3,1.4,0.4c1-0.2,1.9-0.6,2.8-0.9
	c0.5,0,1.3-0.6,1.6-0.4c-0.5,0.3-1,0.6-1.6,0.8c-1,0.4-2,0.8-2.9,1.3c-0.6,0.6,0.7,0.6,1,0.2c1-0.5,2-1,3-1.4
	c0.2,0.2-0.1,0.3-0.2,0.4c-0.5,0.5-1.1,0.9-1.7,1.2c-0.2,0.2-0.6,0.3-0.7,0.6c0.6,0.3,1.1-0.1,1.6-0.3c1.3-0.8,2.6-1.7,3.9-2.5
	c0.6-0.2,1.1-0.5,1.7-0.7c0.2,0.2-0.1,0.3-0.3,0.4L73,43.4c-0.6,0.8-1.4,1.5-2.1,2.1c-0.4,0.3-0.7,0.6-1.1,1
	c-0.6,0.6-1.2,1.2-1.8,1.8c-0.3,0.6-0.5,1.2-0.5,1.8c0,0.7-0.1,1.4,0,2.1c0.1,0.3,0.2,1,0.3,0.3c0-0.3,0.2-1.3,0.5-0.6
	c0.1,0.3,0.2,1.1,0.4,1c0.2-0.4,0.2-1,0.6-1.3c0.3,0.2,0.6,0.6,0.8,0.1s0.3-1.1,0.5-1.6c0.2-0.7,0.3-1.4,0.5-2.1
	c0.3-0.1,0.2,0.3,0.3,0.4l0.3,1.3c0.6-0.3,0.4-1.1,0.6-1.7c0.2-0.5,0.2-1.5,0.6-0.7c0.3,0.6,1-0.1,0.9-0.6c0.2-0.7,0.3-1.4,0.4-2.1
	l0.6,1c0.7,0,0.9-0.7,1.3-1.1c0.4-0.4,0.8-0.8,1.2-1.2c0.5-0.3,0.9-0.6,1.4-0.8c0.5,0.5-0.2,1.1-0.5,1.5c-0.6,0.8-1.4,1.4-2,2.2
	c-0.3,0.3-0.7,0.6-0.6,1l1,0.4c-0.5,0.2-1,0.5-1.5,0.8c-0.4,0.4-0.9,0.7-1.4,1.1c-0.1,0.3-0.2,0.7,0.3,0.6s1.3,0.1,0.6,0.4
	c-0.8,0.4-1.5,0.8-2.2,1.2c-0.2,0.3-0.7,0.7-0.1,0.7c0.4-0.1,1.1-0.7,1.4-0.4c-0.4,0.5-1,1-1.5,1.5c-0.2,0.2-0.8,0.7-0.5,0.9
	c0.7-0.5,1.4-1,2-1.6c0.2-0.4,0.9-0.7,0.7,0c-0.8,1-1.5,1.9-2.3,2.9c0.1,0.9,0.7-0.3,1-0.5c0.4-0.6,0.9-1.1,1.5-1.5
	c0.2,0,0.8-0.8,0.8-0.5s0.1,0.6-0.2,0.8c-0.4,0.7-0.8,1.4-1.2,2.1c-0.1,0.3-0.1,1.2,0.3,0.8c0.6-0.9,1.1-1.9,1.6-2.9
	c0.4-0.9,0.7-1.8,1-2.7c0.3-0.4,0.4-0.3,0.4,0.2c0,0.5,0,1.3,0.3,1.4c0.5-1.2,1.2-2.4,1.8-3.6c0.2-0.6,0.4-1.2,0.7-1.7
	c0.3,0,0.2,0.3,0.2,0.5c0,0.4,0,0.8,0,1.2c-0.3,1-0.6,1.9-1,2.8c-0.3,0.6-0.7,1.1-1,1.7c-0.3,0.4-0.2,0.4,0.1,0.2
	c0.5-0.3,0.9-0.7,1.3-1.2c0.6-0.5,0.2,0.6,0,0.8c-0.3,0.9-0.5,1.9-0.9,2.8c0,0.3-0.1,0.9,0.2,0.4c0.6-0.6,1-1.3,1.3-2
	c0.2,0.3,0.7,0.6,0.9,0.1c0-0.5-0.3-1.1,0-1.6c0.2-0.9,0.4-1.7,0.6-2.6c0.1-0.5,0.1-1.1,0.2-1.6c0.3-0.2,0.2,0.3,0.2,0.5v1.2
	c0.3,0,0.8-0.5,1-0.1c-0.3,0.2-0.8,0.4-1,0.7v1l1.1-0.7c0.3,0.2-0.1,0.3-0.2,0.5l-0.9,0.8v0.7l0.8-0.2c0.2,0.2-0.2,0.3-0.3,0.4
	C82.4,53.6,82,53.7,82,54c0,0.7,0,1.5-0.1,2.2c0.1-0.3,0.6-0.9,0.5-0.9c-0.1,0.3-0.7,0.3-0.3,0c0.2-0.2,1-0.8,0.7-0.2
	c-0.3,0.4-0.6,1-0.9,1.3c-0.1,0-0.2,0.6,0.1,0.5c0.2,0.2,0.9,0.2,0.4,0.5c-0.2,0.2-0.5,0.4-0.6,0.6c-0.1,0.7-0.1,1.3,0,2
	c0.2-0.3,0.8-0.7,0.7-0.8c-0.3,0.1-1,0.1-0.5-0.1c0.3-0.1,1.2-0.2,0.7,0.3c-0.3,0.6-1.1,0.7-0.9,1.3c0,0.4-0.2,0.7,0.4,0.6
	s0.7,0.6,0.1,0.7c-0.4,0.2-0.7,0.2-0.5,0.7c0.1,0.3,1,0.6,0.8,0.9c0-0.4-0.1,0.2-0.3-0.2c-0.3-0.2-0.6-0.7-0.5,0
	c0,1.3-0.1,2.6-0.2,3.9c0.3,0,0.6,0.2,0.8,0.5c-0.3,0.2-0.9-0.8-0.8,0c-0.1,0.4-0.2,0.9-0.2,1.3c0.1-0.1,0.3,0.2,0.5,0.3l0.6,0.4
	c-0.1,0.3-0.3,0-0.5-0.1l-0.6-0.4c0,0.5-0.2,1.5,0,1.8c0.2,0.3,0.9,0.7,0.9,1c-0.3,0.1-0.8-0.8-1-0.8c0,0.8,0,1.6-0.1,2.3
	c0.4,0.2,0.8,0.5,1.2,0.8c-0.3,0.2-0.9-0.7-1.2-0.6c0,0.6,0,1.3-0.1,1.9c-0.1,0.5,1.1,0.3,0.9,0.8c-0.5-0.2-1.1-0.8-1.1,0
	c-0.1,0.7-0.7,1.4-0.2,2c0.2,0.5,0.8,0.7,1.2,1c0.5-0.2,1-0.3,1.6-0.4c0.8-0.1,1.6-0.2,2.4-0.3c0.3-0.2,0.8-0.5,0.2-0.8
	c-0.4-0.5-0.3-1.2-0.6-1.8c0-0.5-0.1-0.7-0.5-0.3c-0.3,0.1-0.8,0.7-1,0.3c0.5-0.2,0.9-0.5,1.4-0.8c-0.1-0.6-0.1-1.2-0.2-1.8
	c-0.4,0.2-0.9,0.8-1.3,0.7c0.1-0.3,0.9-0.5,1.2-0.8c0.2,0,0.1-0.3,0.1-0.5v-1.6c-0.3,0.4-0.8,0.7-1.3,0.8c-0.4-0.3,0.6-0.2,0.7-0.5
	s0.7-0.4,0.6-0.9v-1.4c-0.3,0.2-0.9,0.9-1.2,0.6c0.3-0.3,1-0.6,1.2-1v-1.8c-0.3,0.4-0.8,0.8-1.3,0.9c-0.3,0.3-0.8,0-0.3-0.1
	c0.5-0.1,1-0.4,1.4-0.8c0.3-0.2,0.2-0.4,0.2-0.7v-1.2c-0.6,0.6-1.2,1.2-1.8,1.7c-0.3-0.3,0.6-0.7,0.7-1c0.3-0.4,0.8-0.7,1.1-1.1
	v-1.4c-0.2,0.2-0.6,0.5-0.1,0.2c0.2,0.2-0.2,0.3-0.3,0.4L84,64.5c-0.2-0.4,0.8-0.7,1-1c0.3,0.1,0.2-0.2,0.2-0.4v-1
	c-0.3,0.6-1,0.2-1.5,0.1c-0.4,0,0-0.2,0.1-0.2l1.2-0.7c0.2,0.2-0.1,0.3-0.3,0.4L84,62.1c0.4,0.2,0.8,0.1,1.1-0.2
	c0,0,0.1-0.1,0.1-0.1c0-0.8,0-1.6-0.1-2.3c-0.4,0.4-0.6,0.8-1,0.9c0.2-0.1,1.1,0,0.5,0.2c-0.3,0.1-1.5,0.1-0.7-0.3
	c0.4-0.2,0.7-0.4,0.9-0.8c0.3-0.2,0.3-0.3,0.3-0.6L85,57.3c-0.2,0.2-1,0.8-0.8,0.8c0.2,0,1.1-0.2,0.6,0.1c-0.4,0-1.1,0.5-1.2,0
	c0.5-0.3,0.9-0.7,1.2-1.1c0.2,0,0.1-0.3,0.1-0.5l-0.3-4.4c-0.2,0.2-1.2,1-0.8,0.2c0.2-0.3,0.5-0.7,0.7-0.8c0.3-0.1,0-0.4,0.1-0.6
	c0-0.4-0.1-0.8-0.3-1.2c0-0.2-0.3-0.5,0-0.5c0.3,0.2,0.4,0.9,0.7,1.3c0.4,0.8,0.8,1.6,1.1,2.5c0.2,0.7,0.2,1.4,0.3,2.1
	c0.2-0.1,0.5,0,0.5-0.2c0-0.2,0.2-0.6,0.1-0.8c-0.8-2.1-1.7-4.2-2.5-6.3c0.2-0.2,0.3,0.1,0.3,0.2c0.5,1,0.8,2,1.2,3s0.8,2.2,1.3,3.2
	c0.8-0.4,0.1-1.2,0-1.9c-0.4-1.2-0.8-2.3-1.2-3.4c-0.1-0.2-0.4-0.3-0.6-0.5l-0.8-0.6c0.2-0.4,0.7,0.3,1,0.3c0.6,0.6,0.7-0.3,1.2-0.4
	c0.1,0.5-0.8,0.9-0.3,1.5c0.3,1.2,0.7,2.5,1.2,3.7c0.1,0.2,0.2,0.4,0.2,0.7c-0.2,0.2,0.1,1.2,0.4,1c0.1-0.5,0.4-1.1,0.2-1.6
	c-0.4-1.7-1-3.2-1.5-4.9c0-0.6,0.4,0.2,0.4,0.5c0.6,1.6,1.2,3.1,1.7,4.7c-0.1,0.5-0.1,1.4,0.5,0.9c0.1-0.6,0-1.2-0.2-1.8
	c-0.5-1.4-0.9-2.8-1.4-4.2c-0.3,0.3-0.8,0-0.8-0.3c0.1-0.7-0.5-0.7-1-0.6c-0.2,0,0.4-0.4,0.5-0.5c0.3-0.2,0.9-0.6,0.3-0.8l-0.6-0.3
	c0.3-0.5,0.6-0.9,0.9-1.4c0.2-0.5,0.1-1.1-0.4-1.4c-0.3-0.2-0.3-0.6-0.4-0.9s0-0.5,0.1-0.3l0.2,0.9c0.5,0.2,0.7,0.7,0.7,1.2
	c0.2,0.5-0.4,0.8-0.6,1.2c-0.1,0.2-0.2,0.4-0.4,0.6l0.8,0.4c0.1,0.5-0.8,0.8-0.7,1c0.8-0.2,0.3,0.9,1,1c0.2,0,0.4-0.2,0.6-0.3
	c0.4,0.1-0.2,0.2-0.1,0.4c0.7,1.8,1.4,3.7,2,5.5c-0.1,0.7,0.6,0.8,1,1c0,0.4,0.2,1,0.6,0.9c0-1,0.1-1.9,0.1-2.9
	c0.1-0.3-0.5-1.1,0-1.2c0.3,0.7,0.5,1.5,0.8,2.2c0.1,0.5-0.1,1.3,0.6,1.4c0.3,0.1,0.1-1,0.4-0.7l0.6,0.4c0.8,0,0.2-0.8,0.2-1.2
	c-0.2-0.6-0.5-1.2-0.7-1.8c0.4-0.2-0.2,0-0.1-0.3C93.6,51,93.4,50.5,93,50c-0.1-0.3-0.1-0.7-0.4-0.2c-0.3,0.3-0.3,0.7,0,1
	c0,0,0,0,0,0c0.4,0.6,0.3,1.3,0.8,1.8c0.3,0.3,0.4,0.7,0.4,1.1c0,0.2,0,0.6-0.2,0.4c0-0.3,0.1-0.7-0.1-0.9c-0.2-0.5-0.6-0.8-0.7-1.3
	c-0.1-0.5-0.4-1-0.6-1.5c0-0.1-0.8,0.1-0.7-0.2c0.2,0,0.2-0.1,0.6,0c0.3-0.3,0.3-0.7,0.1-1c-0.4-0.8-1-1.6-1.4-2.4
	c-0.1-0.5,0.1-1.2-0.4-1.6c-0.5-0.6-0.9-1.2-1.1-1.9c-0.4-0.4-0.8-0.8-1.3-1.2c-0.2,0.1-1,0.1-0.6-0.2c0.6-0.2,1,0.1,1.3,0.5
	c0.5,0.3,0.8,0.7,1,1.2c0.2,0.6,0.6,1.2,1,1.6c0.4,0.4,0.2,1,0.3,1.5c0.6,0.9,1.1,1.8,1.5,2.8c-0.1,0.4,0.1-0.1,0.3-0.1
	c0-0.5,0.2-1.2-0.2-1.6c-0.3-0.5-0.7-1.2-1-1.9l-0.7-1.5c-0.3-0.6-0.6-1.1-1-1.6c0.3-0.3,0.5,0.7,0.8,0.9c0.6,1,1,2.2,1.6,3.2
	c0.3,0.4,0.5,0.8,0.7,1.3c0.1,0.3-0.1,1.2,0.1,1.1c0.2-0.1,0.2-0.4,0.3-0.7s0.6,0,0.6-0.2c0.1-0.6-0.6-1.1-0.6-1.7
	c-0.2-0.8-0.5-1.6-0.9-2.4c-0.4-1-1.1-1.8-1.4-2.8c-0.1-0.6,0.4,0.2,0.4,0.4c0.3,0.8,0.8,1.5,1.2,2.2c0.4,0.6,0.6,1.3,0.8,2
	c0.1,0.6,0.4,1.3,0.7,1.8c0.1,0.3,0,0.5,0.2,0.5c0.1,0.2-0.4,0.1-0.2,0.5c0.2,0.4-0.1,1.1-0.2,0.6c0-0.4,0.2-1.1-0.4-0.8
	c-0.1,0.2-0.2,0.4-0.3,0.6c-0.1,0.2-0.5,0.2-0.2,0.6c0.4,0.4,0.7,1,0.8,1.5c0.1,0.5,0.5,0.9,0.8,1.4c0.3,0.3,0.6,1.2,0.9,1.1
	c0.1-0.6-0.4-1-0.6-1.4c-0.4-0.8-0.8-1.7-1.1-2.6c0.3,0.2,0.7,0.3,0.9,0.7c0.7,0.9,1.4,1.9,2.1,2.8c0.8,0.4,0.3-0.6,0.1-0.9
	c-0.6-1.2-1.4-2.2-2-3.3c-0.1-0.2-0.6-0.9-0.2-0.7l2.3,2.9c0.3,0.2,0.7,0.3,0.6-0.1c-0.7-1.2-1.5-2.3-2.2-3.5
	c-0.7-1.2-1.4-2.3-2.1-3.4c0.4-0.3,0.8,0.4,1.2,0.6c0.7,0.3,1.3,0.8,1.8,1.3c0.9,0.8,1.8,1.6,2.7,2.3c0.4,0.3,0.9,0.6,1.3,0.9
	c0-0.2-0.5-0.8-0.3-0.8c0.5,0.2,1,0.4,1.5,0.6c0.3,0.2,1.3,0.5,0.8-0.1c-0.2-0.3-0.9-0.5-0.8-0.9c0.1-0.1,0.4,0.2,0.6,0.2
	c0.4,0.2,0.9,0.4,1.3,0.4c0.7,0,0.3-0.7-0.2-0.8c-1.1-0.6-2.1-1.1-3.2-1.7c0.2-0.4,0.9,0.3,1.3,0.2c0.2-0.1,1.1,0.1,0.8-0.3
	c-0.1-0.2-0.4-0.2-0.6-0.3l-4.4-1.6l-1.9-1.2c0.1-0.4,0.7,0.1,1,0.1c0.5,0.2,1.1,0.2,1.7,0.2c0.4,0,0.8,0,1.2,0
	c-0.2-0.1-1.3-0.4-0.7-0.6c0.3,0,1.2,0,0.4-0.1c-0.6,0-1.2-0.1-1.7-0.2c0.1-0.2,0.4-0.1,0.7-0.1c0.4,0,1.2-0.1,1.4,0.2
	c0.5,0.1,1.1,0.1,1.6,0c0.7,0,1.5,0,2.2-0.1c0.2-0.4,0.9-0.5,0.9-1c0-0.5-0.1-0.9-0.1-1.3c-0.1-0.2-0.2-0.5-0.4-0.5
	c-0.7-0.1-1.4-0.3-2-0.5c-1.3,0-2.7,0-4-0.1c-0.4,0-1,0.4-1.4,0.3c-0.8,0-1.6,0.1-2.3,0.2c-0.3,0.2-0.7-0.1-0.2-0.2
	c0.6-0.2,1.2-0.2,1.8-0.2c0.6,0,1.2-0.1,1.8-0.3c0.4-0.2,0.4,0.2,0.5-0.3c0.3-0.1,1.3,0,1.1-0.4c-1.2,0-2.5,0-3.8,0.1
	c-0.5,0-1,0.2-1.5,0.5c-0.5,0.2-0.1-0.3,0.2-0.3c0.6-0.3,1.2-0.2,1.8-0.6c0.8-0.4,1.6-0.9,2.5-1.3c0.2-0.2,0.8-0.5,0.2-0.5
	c-0.6-0.1-1,0.2-1.5,0.2c-0.7,0.1,0-0.5,0.2-0.6c0.8-0.4,1.6-0.8,2.3-1.3c0.2-0.2,1-0.3,0.7-0.6c-0.6,0.2-1.3,0.5-1.9,0.7
	c-0.2,0-1.2,0.2-0.7-0.2c1-0.6,1.9-1.3,2.9-1.9c0.3-0.4,0.1-0.4-0.3-0.3c-0.4,0.2-0.8,0.4-1.2,0.7c-0.1,0.2-0.9,0.5-0.5,0
	s0.8-0.8,1.3-1.1c0.2-0.3,0.5-1.1-0.2-0.7c-0.4,0.2-0.9,0.2-1.2,0.6l-1.5,1.5c-0.3-0.3,0.6-0.7,0.7-1c0.4-0.5,0.8-0.9,1.2-1.4
	c0.1-0.4,0.1-0.7-0.3-0.4l-0.6,0.2c0,0.4-0.8,0.8-1.1,1.2c-0.5,0.4-1.1,0.6-1.5,1c-0.3-0.3,0.6-0.6,0.8-0.8c0.6-0.4,1.2-0.9,1.6-1.4
	c-0.6,0.1-1.2,0.1-1.6,0.7c-0.9,0.8-1.7,1.7-2.6,2.5c-1.1,0.8-2.2,1.5-3.3,2.2c-0.5,0.2-1.2,0-1.5,0.7c-0.4,0.6-0.9,1.1-1.4,1.7
	c0.5-0.1,1,0,1.5,0.2c0.4,0.2,0.8,0.5,1.2,0.7c-0.2,0.5-0.6,0.8-1.1,0.7c-0.3-0.1-0.6-0.2-0.8-0.3c0-0.3,0.3-0.1,0.5,0
	c0.4,0.2,0.9,0.1,1.1-0.2c-0.1-0.3-0.9-0.6-1.3-0.8s-0.9-0.1-1.3-0.1c-0.4,0,0.1-0.3,0.2-0.5c0.6-0.6,1.1-1.3,1.6-2
	c0-0.5,0.5-0.9,0.7-1.3c0.5-0.9,0.9-1.8,1.3-2.7c0.1-0.4,0.2-0.8,0.1-1.2c0-0.2,0-0.4,0-0.7c-0.4,0.7-0.8,1.5-1.2,2.2
	c-0.5,0,0-0.7,0.1-0.9c0.4-0.7,0.8-1.4,1.1-2.2v-0.9c-0.3-0.3-0.4,0.6-0.7,0.8c-0.5,0.9-1,1.8-1.6,2.6c-0.1,0.3-0.6,0.5-0.4,0.1
	c0.8-1.4,1.6-2.9,2.4-4.3c0.2-0.6,0.3-1.2,0.3-1.9c-0.3-0.5-0.5,0.3-0.8,0.5c-0.3,0.4-0.5,0.9-0.7,1.3c-0.4,0.9-0.8,1.7-1.2,2.6
	c-0.4-0.2,0.3-0.8,0.3-1.2l1.1-3c-0.2-0.4-0.6,0.7-0.8,0.9c-0.4,0.8-0.8,1.6-1.2,2.4c-0.4-0.2,0.3-0.8,0.2-1.2
	c0.2-0.6,0.5-1.2,0.7-1.8C88.5,26.2,88.8,25.6,88.5,25.6z M91.3,36.5c0.1,0.4-0.5,0.6-0.7,0.9c-0.3,0.1-1.4,0.4-1,0.6l1-0.5
	c0.4,0.4,1,0.8,1,1.4c-0.4,0.1-0.2-0.8-0.7-0.8c-0.2-0.4-0.5-0.3-0.8-0.1l-0.7,0.4c-0.4-0.5,0-0.9,0.6-1S90.9,36.8,91.3,36.5
	L91.3,36.5L91.3,36.5z M94.2,37.6c0,0.5-0.8,0.3-1,0.6c-0.3,0.2-0.7,0.7-1,0.7s0.4-0.4,0.5-0.6C93.1,37.9,93.6,37.7,94.2,37.6
	L94.2,37.6z M87.5,39.8c0.5,0.1,0.9,0.3,1.4,0.6c0.5,0.2,0.5,0.8,0.7,1.2c0,0.3-0.2,1.2-0.5,1c0.1-0.4,0.5-0.9,0.2-1.4
	c0-0.5-0.6-0.7-1-0.9L87.4,40L87.5,39.8z M100.7,39.8c1,0,1.9,0.1,2.9,0.2c0.1,0.1-0.2,0.1-0.2,0.2c-1.2-0.1-2.5-0.1-3.7-0.1
	c-0.6-0.1-1.1,0.4-1.7,0.2c-0.3,0.1-1-0.1-0.5-0.2c0.6,0.1,1.1,0,1.7-0.2C99.6,39.8,100.2,39.9,100.7,39.8L100.7,39.8z M99.2,40.6
	c1,0.1,2,0.2,3,0.2c0.6,0,1.3,0,1.9,0.1c-0.1,0.4-1,0-1.3,0.1c-1.1,0-2.2,0-3.3-0.2C99.2,40.8,99.2,40.8,99.2,40.6L99.2,40.6z
	 M100.3,41.7c0.4,0.4,1,0.5,1.6,0.4c0.7,0.1,1.3,0,2-0.1c0.6,0,0,0.3-0.4,0.3c-0.7,0.1-1.4,0-2,0s-1-0.3-1.4-0.4
	c-0.3,0.2-0.6,0.2-0.9,0.2h-1.4c-0.1-0.3,0.3-0.2,0.5-0.2h1.4C99.9,41.8,100.1,41.8,100.3,41.7L100.3,41.7z M81,42.3
	c0.5,0.2-0.4,0.7-0.2,1c0.1,0.3,0.1,0.6,0.2,0.1c0.1-0.2,0.1-0.4,0.2-0.7c0.2,0.3,0.5,0.5,0.8,0.5c0.2,0.3,0.2,0.9,0.4,0.3
	c0.1-0.3,0.3-0.6,0.5-0.9c0.4,0.2,0,1,0.1,1.3c0,0.6,0.1,1.2,0,1.8c0,0.4-0.3,1.3,0.3,0.8c0.2-0.1,0.2-0.4,0.4-0.6
	c0.1-0.5,0.2-1,0.3-1.5c0.5-0.1,0,1.3,0.5,0.9c0.1-0.5-0.2-0.9-0.3-1.4v-1c0.3-0.1,0.2,0.3,0.2,0.5c0,0.4,0,0.8,0.2,1.1
	c0.5,0.3,0.4-0.7,0.8-0.9c0.4-0.2,0.2-1.1,0.7-1c-0.1,0.6-0.4,1.1-0.8,1.4c-0.2,0.3-0.2,0.9-0.7,0.7c0.3,0.3,0,1.1-0.5,0.9
	c-0.1-0.3-0.1-0.7-0.1-0.1c-0.1,0.4-0.3,0.8-0.5,1.2c-0.4,0.2-1.1,0.4-0.8-0.3c0.1-0.8,0.1-1.5,0-2.3c0-0.2,0.1-1,0-0.9
	c-0.2,0.3-0.3,0.7-0.5,1.1c-0.2-0.3-0.1-1.1-0.6-1c-0.3,0-0.4-0.4-0.5,0.1c-0.1,0.1-0.3,0.9-0.5,0.6c-0.1-0.4,0-1.1-0.5-0.6
	c-0.1-0.3-0.2-0.7-0.3-1c0.3-0.2,0.2,0.2,0.3,0.4c0,0.6,0.6,0,0.7-0.3L81,42.3z M88.9,44.9c0.5,1.1,1.1,2.2,1.7,3.2
	c0.4,0.7,0.6,1.5,0.8,2.3c-0.1,0.4,0.8,0.9,0.4,1c-0.4-0.4-0.6-1-0.7-1.6c-0.3-1-0.8-2-1.3-2.9c-0.4-0.7-0.7-1.4-1-2L88.9,44.9z
	 M87.8,46.1c0.5,0.1-0.5,0.6,0.2,0.7c0.3,0.1,0.2,0.5,0.6,0.6c0.8,0-0.1,1.1,0.7,1c0.4,0.3,0,1,0.6,1.2s0.4,0.8,0.6,1.2
	c0,0.3,0.2,0.3,0.4,0.1c0.2-0.2,0.5-0.3,0.4,0l-0.8,0.4c-0.2-0.4-0.4-0.9-0.5-1.3c-0.4-0.3-0.8-0.7-0.8-1.3c0.1-0.6-0.8,0-0.5-0.6
	c0.2-0.6-0.4-0.5-0.5-0.9s-0.6-0.3-0.7-0.7C87.6,46.4,87.7,46.3,87.8,46.1L87.8,46.1z M84.7,51.7c-0.1,0.2-0.9,1-0.3,0.5
	C84.8,52,84.8,52.2,84.7,51.7L84.7,51.7L84.7,51.7z M84.6,53.5c0.6,0.1-0.7,0.7-0.4,0.7s0.5-0.1,0.3,0.1l-0.9,0.3
	C83.4,54.1,84.4,53.8,84.6,53.5L84.6,53.5z M84.7,55.4c0.5,0-0.3,0.5-0.4,0.7c-0.5,0.4,0.6-0.4,0.5,0c-0.2,0.2-1,0.7-1.3,0.4
	C83.8,56.1,84.3,55.8,84.7,55.4L84.7,55.4z M81.8,57.2c0,0.4-0.1,0.8,0.3,0.4C82.4,57.3,82,57.3,81.8,57.2z M81.6,61.7
	c0,0.3-0.1,0.9,0.3,0.5c0.3-0.2,0.6-0.4,0-0.4L81.6,61.7z M81.5,65.5c0.3,0.2,1.1,0.2,1.1,0.6C82.3,66,81.6,65.8,81.5,65.5
	L81.5,65.5z M80.1,78.2c-1.2,0-2.4,0-3.6,0c-0.6,0.3-1.1,0.6-1.5,1c-0.3,0.4,0.5,0.8,0.9,0.7c0.2,0.1,1-0.1,0.8,0.3
	c-0.2,0.6-0.8,0.7-1.3,1c-0.3,0.6,0.4,1.2,0.8,0.7c0.3-0.3,0.5-0.3,0.7,0c0.2,0.3-0.2,0.9,0.5,0.9c0.5-0.3,0.9-0.6,1.3-1
	c0.3-0.4,0.8-0.8,0.9-0.1c1,0.5,2.3,0.3,3.1-0.4c0.6-0.3,1.1,0.3,1.4,0.8c0.4,0.3,1,0.3,0.8-0.4c-0.1-0.4,0-0.9,0.5-0.6
	c0.6,0.1,1,0.5,1.5,0.7c0-0.4,0-1.2,0.5-0.7c0.5,0.4,1,0.7,1.6,0.8c0-0.2,0-0.5,0-0.7c0.4-0.4,1.1,0.7,1-0.1c0.1-0.3-0.3-1,0.1-0.9
	c0.6,0.2,1.2,0.4,1.8,0.5c-0.5-0.6-1.1-1.1-1.7-1.5c-0.6-0.3-1.2-0.4-1.9-0.4c-0.7-0.1-1.4,0-2.1-0.1c-0.3-0.2-0.2,0-0.2,0
	c-0.4,0.6-1.1,0.5-1.8,0.6c-0.9,0-1.7,0.2-2.6,0.5c-0.6,0.1-1.1-0.4-1.5-0.8C80.4,78.6,80.2,78.4,80.1,78.2z"/>
<path class="st0" d="M412.4,0h145.9c1.8,0,3.3,1.5,3.3,3.3v13.2c0,1.8-1.5,3.3-3.3,3.3H412.4c-1.8,0-3.3-1.5-3.3-3.3V3.3
	C409.1,1.5,410.5,0,412.4,0z"/>
<path class="st3" d="M418.8,5.8h1.7l-1.8,8.4H417L418.8,5.8z"/>
<path class="st3" d="M427.7,7.3h-2.3l-1.5,6.9h-1.7l1.5-6.9h-2.3l0.3-1.5h6.3L427.7,7.3z"/>
<path class="st3" d="M428,8.8c0.9-0.9,1.5-2,1.7-3.2h1.3c-0.3,1.4-1.1,2.7-2.3,3.5L428,8.8z"/>
<path class="st3" d="M430.6,11.7h1.7c-0.1,0.6,0.4,1.1,1.1,1.1c0.7,0.1,1.3-0.4,1.5-1c0.1-0.5-0.2-0.8-0.9-1l-1-0.3
	c-1.7-0.5-1.8-1.6-1.7-2.4c0.4-1.5,1.8-2.6,3.4-2.5c1.6,0,2.6,1,2.2,2.5h-1.7c0.1-0.6-0.2-1-0.9-1c-0.6,0-1.2,0.4-1.4,1
	c0,0.2-0.1,0.6,0.7,0.9l0.9,0.3c1.2,0.4,2.1,1,1.8,2.4c-0.4,1.6-1.9,2.6-3.5,2.5C431.3,14.3,430.3,13.2,430.6,11.7z"/>
<path class="st3" d="M449,5.8l-4.2,4.6l-0.8,3.8h-1.7l0.8-3.8l-2.3-4.6h2l1.4,3.2l2.8-3.2L449,5.8z"/>
<path class="st3" d="M448,10c0.6-2.4,2.7-4.2,5.2-4.3c1.9-0.1,3.4,1.4,3.5,3.2c0,0.4,0,0.7-0.1,1.1c-0.6,2.4-2.7,4.2-5.2,4.3
	c-1.8,0.1-3.4-1.4-3.5-3.2C447.9,10.7,447.9,10.3,448,10z M454.8,10c0.4-1.1-0.2-2.2-1.3-2.6c-0.2-0.1-0.5-0.1-0.7-0.1
	c-1.5,0.1-2.8,1.2-3.1,2.7c-0.4,1,0.1,2.2,1.2,2.6c0.3,0.1,0.6,0.1,0.8,0.1C453.2,12.6,454.5,11.5,454.8,10z"/>
<path class="st3" d="M457.7,11.2l1.1-5.4h1.7l-1.1,5.3c-0.2,1.1,0.4,1.6,1.2,1.6c0.9,0,1.7-0.7,1.9-1.6l1.1-5.3h1.7l-1.2,5.4
	c-0.4,1.8-2,3.1-3.9,3.1c-1.3,0.1-2.5-0.8-2.6-2.2C457.6,11.8,457.6,11.5,457.7,11.2z"/>
<path class="st3" d="M468.3,11.2h-0.6l-0.6,3h-1.7l1.8-8.4h3.3c1.1-0.1,2.1,0.7,2.3,1.8c0,0.3,0,0.6-0.1,0.9
	c-0.2,1.3-1.3,2.3-2.6,2.6l1.5,3.1h-2L468.3,11.2z M468.1,9.8h1.4c0.8,0.1,1.5-0.5,1.6-1.2c0.1-0.7-0.1-1.3-0.9-1.3h-1.5L468.1,9.8z
	"/>
<path class="st3" d="M476.4,10c0.6-2.4,2.7-4.2,5.2-4.3c1.3,0,2.4,0.6,3,1.7l-1.5,0.9c-0.3-0.7-1-1.1-1.8-1.1
	c-1.6,0.1-2.9,1.2-3.2,2.7c-0.4,1.1,0.2,2.2,1.3,2.6c0.2,0.1,0.5,0.1,0.7,0.1c0.9,0,1.7-0.4,2.3-1.1l1.1,0.9c-1,1.1-2.3,1.7-3.8,1.7
	c-1.8,0.1-3.4-1.4-3.5-3.2C476.3,10.7,476.3,10.3,476.4,10z"/>
<path class="st3" d="M489.5,12.2h-3.1l-1,2h-1.8l4.9-8.4h1.8l1.3,8.4h-1.8L489.5,12.2z M489.3,10.7l-0.4-3.1l-1.7,3.1H489.3z"/>
<path class="st3" d="M494.3,5.8h1.7l-1.5,6.9h3.2l-0.4,1.5h-4.8L494.3,5.8z"/>
<path class="st3" d="M500.4,5.8h1.7l-1.5,6.9h3.2l-0.3,1.5h-4.9L500.4,5.8z"/>
<path class="st3" d="M513.9,7.3h-2.3l-1.5,6.9h-1.7l1.5-6.9h-2.3l0.3-1.5h6.3L513.9,7.3z"/>
<path class="st3" d="M513.7,10c0.6-2.4,2.7-4.2,5.2-4.3c1.9-0.1,3.4,1.4,3.5,3.2c0,0.4,0,0.7-0.1,1.1c-0.6,2.4-2.7,4.2-5.2,4.3
	c-1.8,0.1-3.4-1.4-3.5-3.2C513.6,10.7,513.6,10.3,513.7,10z M520.6,10c0.4-1-0.1-2.2-1.2-2.6c-0.3-0.1-0.6-0.1-0.8-0.1
	c-1.5,0.1-2.8,1.2-3.1,2.7c-0.4,1,0.1,2.2,1.2,2.6c0.3,0.1,0.6,0.1,0.8,0.1C519,12.6,520.2,11.5,520.6,10z"/>
<path class="st3" d="M532.1,13.5l0.5,1.3l-1.3,0.7l-0.6-1.4c-0.4,0.1-0.8,0.2-1.2,0.2c-1.8,0.1-3.4-1.4-3.5-3.2c0-0.4,0-0.7,0.1-1.1
	c0.5-2.5,2.7-4.2,5.2-4.3c1.8-0.1,3.4,1.4,3.5,3.2c0,0.4,0,0.7-0.1,1.1C534.3,11.5,533.4,12.7,532.1,13.5z M530.1,12.7l-0.5-1.2
	l1.3-0.7l0.5,1.4c0.7-0.5,1.2-1.3,1.4-2.1c0.4-1-0.1-2.2-1.2-2.6c-0.3-0.1-0.5-0.1-0.8-0.1c-1.5,0.1-2.8,1.2-3.1,2.7
	c-0.4,1,0.1,2.2,1.2,2.6c0.3,0.1,0.6,0.1,0.8,0.1L530.1,12.7z"/>
<path class="st3" d="M535.9,11.2l1.1-5.4h1.7l-1.1,5.3c-0.2,1.1,0.4,1.6,1.2,1.6c0.9,0,1.7-0.7,1.8-1.6l1.1-5.3h1.7l-1.1,5.4
	c-0.4,1.8-2,3.1-3.9,3.1c-1.3,0.1-2.5-0.8-2.6-2.2C535.8,11.8,535.8,11.5,535.9,11.2z"/>
<path class="st3" d="M545.3,5.8h1.7l-1.8,8.4h-1.7L545.3,5.8z"/>
<path class="st3" d="M554.3,7.3H552l-1.5,6.9h-1.7l1.5-6.9H548l0.3-1.5h6.3L554.3,7.3z"/>
<path class="st0" d="M53.4,5.4L53.4,5.4l9.2,0.7c0.4,0,0.8,0.3,1.1,0.6l1.2,1.6l1.2-0.3c0.1,0,0.2,0,0.4,0c0.5,0,0.9,0.2,1.2,0.6
	l3,3.8c0.1,0.2,0.2,0.4,0.3,0.6l0.5,2.4c0,0.1,0,0.2,0,0.4v1.2l28.2-0.4C87.2,3.7,68.5-0.6,51.8,5.4L53.4,5.4z"/>
<path class="st0" d="M52.9,91.4c0-0.1,0-0.3,0-0.4l0.2-1.7l-0.6-1.9l-1.9-3.5c-0.1-0.2-0.2-0.5-0.2-0.8l0.1-1.3l-3.4-2.7l-1.8-0.8
	c-0.2-0.1-0.4-0.3-0.6-0.5l-1.8-2.4c-0.1-0.1-0.2-0.3-0.2-0.4l-1.4-0.7c-0.5-0.2-0.8-0.7-0.8-1.2l-0.1-1.4l-1.5-1.1
	c-0.3-0.2-0.5-0.5-0.6-0.8l-0.5-2.2c-0.1-0.3-0.1-0.5,0-0.8l0.1-0.4l-0.9-0.7c-0.1,0-0.1-0.1-0.2-0.2l-2.5-2.6l-1.8-0.6
	c-0.3-0.1-0.5-0.2-0.7-0.4l-1.3-1.4c-0.1-0.1-0.2-0.3-0.3-0.4l-1-2.6L27.8,55l-3.6-2.5l-0.1-0.1L21.5,50
	c0.7,19.1,13.3,35.7,31.4,41.7L52.9,91.4z"/>
<path class="st0" d="M388.6,54.7l5.8-5.8l14.9,14.9l-5.8,5.8L388.6,54.7z"/>
</svg>
