<svg id="Rescue_Logo_-_White_R_" data-name="Rescue Logo - White (R)" xmlns="http://www.w3.org/2000/svg" viewBox="0 0 221.917 49.535"><defs><style>.cls-1{fill:#fff}</style></defs><g id="Group_172" data-name="Group 172"><g id="Group_164" data-name="Group 164" transform="translate(68.672 11.777)"><path id="Path_3915" data-name="Path 3915" class="cls-1" d="M109.419 41.7l-6.183-8.759h-5.52V41.7H93.3V16.6h11.188c5.815 0 9.348 3.018 9.348 7.949a7.529 7.529 0 0 1-5.962 7.655l6.772 9.495h-5.226zm-5.226-21.124h-6.4v8.464h6.477c3.165 0 5.152-1.619 5.152-4.269-.076-2.724-1.99-4.196-5.229-4.196z" transform="translate(-93.3 -16.158)"/><path id="Path_3916" data-name="Path 3916" class="cls-1" d="M147.222 20.5h-14.206v6.551H145.6v3.975h-12.584V37.8h14.426v3.975H128.6V16.6h18.622z" transform="translate(-102.618 -16.158)"/><path id="Path_3917" data-name="Path 3917" class="cls-1" d="M171.235 26.967c5.3 1.325 8.1 3.165 8.1 7.434 0 4.711-3.68 7.508-8.98 7.508A15.184 15.184 0 0 1 159.9 37.86l2.65-3.165a11.643 11.643 0 0 0 7.949 3.239c2.723 0 4.49-1.251 4.49-3.165 0-1.84-1.03-2.8-5.667-3.9-5.373-1.325-8.391-2.871-8.391-7.508 0-4.416 3.607-7.36 8.612-7.36a13.9 13.9 0 0 1 9.127 3.165l-2.355 3.312a11.344 11.344 0 0 0-6.845-2.576c-2.576 0-4.122 1.325-4.122 3.018-.075 2.06 1.103 2.943 5.887 4.047z" transform="translate(-110.88 -16)"/><path id="Path_3918" data-name="Path 3918" class="cls-1" d="M204.007 41.982A12.665 12.665 0 0 1 191.2 29.028 12.715 12.715 0 0 1 204.154 16a13.245 13.245 0 0 1 9.863 3.9l-2.871 3.239a10.1 10.1 0 0 0-7.066-3.091c-4.784 0-8.317 3.975-8.317 8.906s3.459 8.98 8.317 8.98c3.091 0 5.079-1.251 7.213-3.239l2.871 2.871a12.909 12.909 0 0 1-10.157 4.416z" transform="translate(-119.142 -16)"/><path id="Path_3919" data-name="Path 3919" class="cls-1" d="M251.092 30.806c0 7.508-4.269 11.261-10.82 11.261S229.6 38.313 229.6 31.026V16.6h4.416v14.279c0 4.637 2.429 7.213 6.33 7.213s6.33-2.355 6.33-6.992V16.6h4.416z" transform="translate(-129.278 -16.158)"/><path id="Path_3920" data-name="Path 3920" class="cls-1" d="M284.922 20.5h-14.206v6.551H283.3v3.975h-12.584V37.8h14.426v3.975H266.3V16.6h18.622z" transform="translate(-138.965 -16.158)"/></g><g id="Group_171" data-name="Group 171"><g id="Group_168" data-name="Group 168" transform="translate(21.64)"><g id="Group_167" data-name="Group 167"><g id="Group_165" data-name="Group 165"><path id="Path_3921" data-name="Path 3921" d="M57.369 36.728L35.8 0l-6.4 11.629 14.5 25.1z" transform="translate(-29.4)" fill="#717375"/></g></g></g><g id="Group_169" data-name="Group 169" transform="translate(14.5 37.759)"><path id="Path_3923" data-name="Path 3923" class="cls-1" d="M19.7 63.077h42.911L55.4 51.3H26.545z" transform="translate(-19.7 -51.3)"/></g><g id="Group_170" data-name="Group 170" transform="translate(0 12.733)"><path id="Path_3924" data-name="Path 3924" d="M20.977 17.3L0 54.1h13.322l6.772-11.777L27.822 29z" transform="translate(0 -17.3)" fill="#b0ff00"/></g></g></g><g id="Group_173" data-name="Group 173" transform="translate(218.382 33.784)"><path id="Path_3925" data-name="Path 3925" class="cls-1" d="M299.718 48.918a1.777 1.777 0 1 1 .515-1.251 1.776 1.776 0 0 1-.515 1.251zm-2.355-2.282a1.6 1.6 0 1 0 1.1-.442 1.5 1.5 0 0 0-1.101.442zm1.03.074c.221 0 .442 0 .515.074.221.074.294.221.294.515a.4.4 0 0 1-.221.368c-.074.074-.147.074-.294.074a.4.4 0 0 1 .368.221.443.443 0 0 1 .074.294v.368h-.294V48.4a.622.622 0 0 0-.147-.442.552.552 0 0 0-.368-.074h-.294v.736h-.368v-1.91zm.368.294c-.074-.074-.221-.074-.442-.074h-.294v.736h.294c.147 0 .221 0 .294-.074.147-.074.221-.147.221-.294.074-.147.001-.22-.073-.298z" transform="translate(-296.7 -45.9)"/></g></svg>