<svg xmlns="http://www.w3.org/2000/svg" width="149.569" height="76.913" viewBox="0 0 149.569 76.913">
  <g id="Group_1385" data-name="Group 1385" transform="translate(-416.205 -136.84)">
    <rect id="Rectangle_148" data-name="Rectangle 148" width="124.756" height="24.839" transform="translate(428.517 176.318)" fill="#59d7cf"/>
    <g id="Group_1361" data-name="Group 1361">
      <path id="Path_1839" data-name="Path 1839" d="M439.52,172.132l-5.336-7.457h-.063v7.457h-5.648V149.041h7.3c2.434,0,5.117.062,7.114,1.654a8,8,0,0,1,2.84,6.3c0,3.557-2.091,6.678-5.741,7.271l6.272,7.863Zm-3.246-17.911h-2.153v6.428h2.091c2.215,0,3.869-.936,3.869-3.308C440.081,155.064,438.3,154.221,436.274,154.221Z" fill="#fff"/>
      <path id="Path_1840" data-name="Path 1840" d="M447.289,172.132V149.041h12.825v5.18h-7.177v3.589H459.9v5.179h-6.959v3.964h7.177v5.179Z" fill="#fff"/>
      <path id="Path_1841" data-name="Path 1841" d="M471.5,154.221v17.911h-5.9V154.221H461.05v-5.18h14.979v5.18Z" fill="#fff"/>
      <path id="Path_1842" data-name="Path 1842" d="M490.289,172.132V162.9h-7.552v9.236h-5.9V149.041h5.9v8.675h7.552v-8.675h5.9v23.091Z" fill="#fff"/>
      <path id="Path_1843" data-name="Path 1843" d="M499.115,172.132V149.041h5.9v23.091Z" fill="#fff"/>
      <path id="Path_1844" data-name="Path 1844" d="M522.192,172.132l-8.8-14.042-.063.032.156,14.01h-5.648V149.041h5.087l8.924,14.51.063-.062-.25-14.448h5.648v23.091Z" fill="#fff"/>
      <path id="Path_1845" data-name="Path 1845" d="M542.337,172.132l-6.3-9.985h-.062v9.985h-5.9V149.041h5.9v10.391h.062l6.522-10.391h6.179l-7.645,11.514,8.144,11.577Z" fill="#fff"/>
    </g>
    <g id="Group_1362" data-name="Group 1362">
      <path id="Path_1846" data-name="Path 1846" d="M441.642,197.392l-4.015-5.611h-.047v5.611h-4.249V180.019h5.493c1.831,0,3.851.047,5.353,1.245a6.017,6.017,0,0,1,2.136,4.742,5.241,5.241,0,0,1-4.319,5.47l4.718,5.916ZM439.2,183.917h-1.62v4.836h1.573c1.667,0,2.912-.7,2.912-2.488C442.065,184.55,440.726,183.917,439.2,183.917Z" fill="#193350"/>
      <path id="Path_1847" data-name="Path 1847" d="M447.494,197.392V180.019h9.649v3.9h-5.4v2.7h5.237v3.9h-5.237v2.982h5.4v3.9Z" fill="#193350"/>
      <path id="Path_1848" data-name="Path 1848" d="M467.172,197.721a9.015,9.015,0,1,1,7.606-13.946,7.381,7.381,0,0,1,1.174,2.842H471.3a4.5,4.5,0,0,0-4.2-3.029,4.788,4.788,0,0,0-4.648,5.071c0,2.676,1.831,5.165,4.671,5.165a4.573,4.573,0,0,0,4.179-2.935h4.649A8.9,8.9,0,0,1,467.172,197.721Z" fill="#193350"/>
      <path id="Path_1849" data-name="Path 1849" d="M486.077,197.721a8.97,8.97,0,0,1-9.132-8.8,10.009,10.009,0,0,1,.68-3.71,8.1,8.1,0,0,1,1.127-1.948,9.126,9.126,0,1,1,7.325,14.462Zm.047-14.133a4.82,4.82,0,0,0-4.742,5.071,4.744,4.744,0,1,0,4.742-5.071Z" fill="#193350"/>
      <path id="Path_1850" data-name="Path 1850" d="M504.514,197.392h-4.577l-5.8-17.373h4.555l3.5,12.185h.046l3.522-12.185h4.578Z" fill="#193350"/>
      <path id="Path_1851" data-name="Path 1851" d="M511.118,197.392V180.019h9.649v3.9h-5.4v2.7H520.6v3.9h-5.235v2.982h5.4v3.9Z" fill="#193350"/>
      <path id="Path_1852" data-name="Path 1852" d="M530.656,197.392l-4.015-5.611h-.047v5.611h-4.249V180.019h5.493c1.831,0,3.851.047,5.353,1.245a6.017,6.017,0,0,1,2.136,4.742,5.241,5.241,0,0,1-4.319,5.47l4.718,5.916Zm-2.442-13.475h-1.62v4.836h1.573c1.667,0,2.912-.7,2.912-2.488C531.079,184.55,529.74,183.917,528.214,183.917Z" fill="#193350"/>
      <path id="Path_1853" data-name="Path 1853" d="M544.35,191.077v6.315h-4.437v-6.315l-5.189-11.058h4.813l2.583,6.973,2.6-6.973h4.766Z" fill="#193350"/>
    </g>
    <g id="Group_1364" data-name="Group 1364">
      <path id="Path_1854" data-name="Path 1854" d="M551.143,152.989l-5.463,7.528,5.463,7.528Z" fill="#9281c5"/>
      <g id="Group_1363" data-name="Group 1363">
        <path id="Path_1855" data-name="Path 1855" d="M565.773,213.753H416.2V136.84H565.773v14.8H559.6v-8.633H422.374v64.574H559.6V163.569H549.268V157.4h16.505Z" fill="#9281c5"/>
      </g>
    </g>
  </g>
</svg>
